<svg width="188" height="54" viewBox="0 0 188 54" fill="none" xmlns="http://www.w3.org/2000/svg">
<g clip-path="url(#clip0_1_2)">
<mask id="mask0_1_2" style="mask-type:luminance" maskUnits="userSpaceOnUse" x="0" y="0" width="188" height="54">
<path d="M188 0H0V54H188V0Z" fill="white"/>
</mask>
<g mask="url(#mask0_1_2)">
<path d="M188 0H0V54H188V0Z" fill="white"/>
<path d="M52.68 32.176C52.808 33.456 53.1067 34.736 53.576 36.016C54.088 37.296 54.856 39.0667 55.88 41.328C56.5627 42.736 57.1813 44.144 57.736 45.552C57.736 46.064 57.544 46.4053 57.16 46.576C56.8187 46.7467 56.3067 46.832 55.624 46.832C55.24 46.832 54.8773 46.768 54.536 46.64C54.1947 46.512 53.9813 46.4267 53.896 46.384C53.2987 46.0853 52.7653 45.936 52.296 45.936C52.0827 45.936 51.7627 46 51.336 46.128C50.952 46.256 50.6747 46.32 50.504 46.32C50.2907 46.32 50.056 46.064 49.8 45.552C49.5867 44.9973 49.3093 44.1867 48.968 43.12C48.84 42.8213 48.712 42.5227 48.584 42.224C48.4987 41.8827 48.392 41.5413 48.264 41.2C48.1787 41.0293 47.9013 40.3253 47.432 39.088C46.9627 37.8507 46.3653 36.784 45.64 35.888C44.9573 34.992 44.2533 34.544 43.528 34.544C42.6747 34.544 41.864 34.608 41.096 34.736C40.7973 34.7787 40.4347 34.8213 40.008 34.864C39.624 34.9067 39.1547 34.928 38.6 34.928C37.4053 34.928 36.168 34.864 34.888 34.736C32.328 34.608 30.8987 34.544 30.6 34.544C30.1733 36.1653 29.8107 37.4027 29.512 38.256C29.2133 39.0667 28.6373 40.4533 27.784 42.416C27.6133 42.8427 27.4853 43.3973 27.4 44.08C27.272 44.976 27.08 45.6587 26.824 46.128C26.6107 46.5973 26.2267 46.832 25.672 46.832C24.904 46.832 24.2427 46.768 23.688 46.64C23.1333 46.5547 22.3867 46.3413 21.448 46C21.448 45.2747 21.5973 44.464 21.896 43.568C22.1947 42.6293 22.6427 41.4133 23.24 39.92L23.816 38.512C24.1573 37.488 24.4987 36.336 24.84 35.056C25.224 33.776 25.48 32.9013 25.608 32.432C26.248 29.744 26.8453 27.6747 27.4 26.224C27.6987 25.4133 28.1467 24.3253 28.744 22.96C28.872 22.6187 29.1493 21.9573 29.576 20.976C30.0027 19.952 30.344 18.928 30.6 17.904L30.92 17.584C31.0053 17.2853 31.112 16.7307 31.24 15.92C31.368 15.0667 31.5813 14.3627 31.88 13.808C32.1787 13.2533 32.5627 12.976 33.032 12.976C33.032 12.2933 33.416 10.672 34.184 8.112C34.9947 5.552 35.6133 4.10133 36.04 3.76C38.2587 3.76 39.7307 3.80266 40.456 3.888C41.224 3.97333 41.8213 4.272 42.248 4.784C42.6747 5.296 43.1227 6.27733 43.592 7.728L44.36 9.264L44.296 9.84C44.552 9.84 44.744 10.0107 44.872 10.352C45.0427 10.6933 45.2133 11.2053 45.384 11.888C45.5547 12.6133 45.7253 13.232 45.896 13.744C46.1093 14.2133 46.3867 14.576 46.728 14.832C46.6427 14.832 46.5573 14.8747 46.472 14.96C46.3867 15.0453 46.3227 15.1093 46.28 15.152C46.28 15.4507 46.408 15.8987 46.664 16.496C46.9627 17.008 47.112 17.4773 47.112 17.904H47.944C47.8587 17.9893 47.7733 18.1173 47.688 18.288C47.6027 18.4587 47.56 18.608 47.56 18.736C47.56 18.9493 47.816 19.3973 48.328 20.08C48.84 20.848 49.096 21.3173 49.096 21.488L49.352 22.896C49.608 24.6453 49.928 25.904 50.312 26.672C50.6533 27.312 51.016 27.7813 51.4 28.08C51.6987 28.336 51.9333 28.6987 52.104 29.168C52.3173 29.6373 52.5093 30.64 52.68 32.176ZM34.888 14.832C33.7787 14.832 33.224 15.3013 33.224 16.24L33.288 16.688C34.3547 16.3893 35.3573 15.856 36.296 15.088C37.2347 14.32 37.96 13.424 38.472 12.4L43.208 10.8C43.208 9.34933 42.7813 8.21866 41.928 7.408C41.1173 6.59733 40.712 6.17066 40.712 6.128L39.944 6.192C39.816 6.192 39.4533 6.064 38.856 5.808C38.3013 5.50933 37.896 5.36 37.64 5.36C37.256 5.36 36.9787 5.57333 36.808 6C36.6373 6.42667 36.488 7.04533 36.36 7.856C36.3173 8.32533 36.232 8.77333 36.104 9.2C36.0187 9.62667 35.8693 9.904 35.656 10.032H37.256C37.0853 10.3307 36.8507 10.5867 36.552 10.8C36.296 10.9707 36.04 11.12 35.784 11.248C35.1867 11.5467 34.7387 11.888 34.44 12.272C34.184 12.6133 34.056 13.1893 34.056 14C34.056 14.2987 34.0987 14.512 34.184 14.64C34.312 14.768 34.5467 14.832 34.888 14.832ZM39.304 12.784C39.304 12.9973 39.432 13.3387 39.688 13.808C39.9867 14.2347 40.2213 14.448 40.392 14.448C40.6907 14.448 41.2667 13.9787 42.12 13.04C42.632 12.4427 43.1227 11.9733 43.592 11.632C41.672 11.632 40.2427 12.016 39.304 12.784ZM43.976 23.472C45.5547 22.1493 46.344 20.8267 46.344 19.504C46.344 18.736 46.28 18.0747 46.152 17.52C46.0667 16.9653 45.7893 16.688 45.32 16.688C45.1493 16.7307 44.936 16.8373 44.68 17.008C44.424 17.1787 44.1893 17.3707 43.976 17.584L45.512 15.984C45.512 15.8133 45.2773 15.1733 44.808 14.064C44.3813 12.9547 44.104 12.4 43.976 12.4H43.592L40.84 15.152L40.776 15.408C40.776 15.6213 40.904 15.8347 41.16 16.048C41.4587 16.2187 41.736 16.3253 41.992 16.368C41.7787 16.4107 41.6507 16.5387 41.608 16.752C41.5653 16.9653 41.544 17.1787 41.544 17.392C41.544 18.3307 41.7573 18.8 42.184 18.8C42.312 18.8 42.6533 18.6293 43.208 18.288C43.208 18.5867 43.1227 18.9493 42.952 19.376C42.824 19.8027 42.76 20.144 42.76 20.4C43.0587 20.4 43.2933 20.3787 43.464 20.336C43.6773 20.2933 43.8693 20.2507 44.04 20.208C44.6373 20.0373 45.128 19.952 45.512 19.952C45.384 20.208 45.1067 20.4213 44.68 20.592C44.296 20.72 43.9973 20.848 43.784 20.976C43.6133 21.104 43.528 21.3813 43.528 21.808V22.192C43.528 22.7467 43.6773 23.1733 43.976 23.472ZM35.272 17.904C35.144 18.2453 34.9307 18.48 34.632 18.608C34.3333 18.736 33.9067 18.8427 33.352 18.928C32.6693 19.056 32.1573 19.2267 31.816 19.44C31.5173 19.6533 31.368 20.08 31.368 20.72C31.368 20.8053 31.4107 20.8907 31.496 20.976C31.624 21.0613 31.7093 21.104 31.752 21.104C35.2507 19.056 37 17.2 37 15.536H36.552C36.296 15.536 35.592 15.9413 34.44 16.752C33.3307 17.5627 32.776 18.096 32.776 18.352C33.1173 18.352 33.544 18.288 34.056 18.16C34.568 17.9893 34.9733 17.904 35.272 17.904ZM38.472 15.984C38.1307 18.032 37.5333 20.1013 36.68 22.192C35.8693 24.24 34.888 26.1173 33.736 27.824L33.672 28.016C33.672 28.656 34.4613 28.976 36.04 28.976C36.8507 28.976 37.576 28.9547 38.216 28.912C38.856 28.8693 39.3893 28.8267 39.816 28.784C41.5227 28.6133 42.8027 28.528 43.656 28.528C43.656 27.76 43.2507 26.4373 42.44 24.56C42.3547 24.3893 42.184 24.0053 41.928 23.408C41.672 22.768 41.544 22.2773 41.544 21.936L38.472 15.984ZM34.888 19.44C34.4187 19.9947 33.672 20.6133 32.648 21.296C32.264 21.552 31.9227 21.808 31.624 22.064C31.3253 22.32 31.176 22.5547 31.176 22.768C32.584 22.768 33.544 22.576 34.056 22.192C34.568 21.7653 34.9733 20.848 35.272 19.44H34.888ZM44.68 24.048C44.68 24.048 44.7227 24.1547 44.808 24.368C44.8933 24.5387 45.0213 24.624 45.192 24.624C45.448 24.624 45.8533 24.56 46.408 24.432C46.9627 24.304 47.3467 24.24 47.56 24.24L45.192 25.456L45.128 25.584C45.128 25.7973 45.2133 26.032 45.384 26.288C45.5547 26.544 45.6827 26.672 45.768 26.672C46.408 26.672 46.9413 26.3947 47.368 25.84C47.7947 25.2853 48.008 24.688 48.008 24.048C48.008 23.4507 47.9013 22.8107 47.688 22.128C47.4747 21.4453 47.1547 21.104 46.728 21.104C46.4293 21.488 45.9173 22.2773 45.192 23.472C44.8507 23.8133 44.68 24.0053 44.68 24.048ZM30.92 23.472C30.536 23.472 30.2373 23.6853 30.024 24.112C29.8533 24.496 29.704 24.9013 29.576 25.328C29.448 25.7547 29.3627 26.0533 29.32 26.224C29.704 26.0107 30.3653 25.6267 31.304 25.072C32.2853 24.4747 33.096 23.9413 33.736 23.472H30.92ZM33.288 24.624C33.1173 24.7093 32.84 24.8373 32.456 25.008C32.072 25.1787 31.7733 25.392 31.56 25.648C31.3467 25.8613 31.24 26.1387 31.24 26.48C31.6667 26.48 32.1147 26.3093 32.584 25.968C33.096 25.6267 33.352 25.264 33.352 24.88L33.288 24.624ZM46.28 33.328C46.4507 33.6693 46.6213 33.904 46.792 34.032C46.9627 34.1173 47.2187 34.16 47.56 34.16C48.2853 34.16 48.8613 33.8613 49.288 33.264C49.7147 32.624 49.928 31.9413 49.928 31.216C49.928 30.448 49.864 29.7653 49.736 29.168C49.608 28.5707 49.4373 27.952 49.224 27.312C49.0107 26.6293 48.8613 26.1387 48.776 25.84C48.264 25.84 47.7733 26.032 47.304 26.416C46.8347 26.8 46.4933 27.2693 46.28 27.824H48.264V28.208C48.0933 28.4213 47.56 29.04 46.664 30.064C45.768 31.0453 45.128 31.8773 44.744 32.56L45.512 32.624C46.024 32.624 46.7067 32.4107 47.56 31.984C48.4133 31.6 49.0533 31.408 49.48 31.408C49.0107 32.0053 47.944 32.6453 46.28 33.328ZM31.368 27.056C30.2587 27.056 29.4267 27.2267 28.872 27.568C28.36 27.8667 28.104 28.4853 28.104 29.424L28.168 30.192C28.424 30.0213 28.8293 29.7653 29.384 29.424C29.9813 29.0827 30.472 28.72 30.856 28.336C31.2827 27.952 31.5813 27.5253 31.752 27.056H31.368ZM47.176 28.656C46.5787 28.656 46.28 28.912 46.28 29.424L47.176 28.656ZM30.6 30.96V29.424L28.936 30.96H30.6ZM39.176 33.2C40.1573 33.2 41.0107 33.072 41.736 32.816C42.504 32.56 43.1227 32.0907 43.592 31.408C43.464 31.152 43.144 30.96 42.632 30.832C42.1627 30.6613 41.8 30.576 41.544 30.576C41.288 30.576 40.9253 30.8107 40.456 31.28C39.9867 31.7067 39.7093 32.0053 39.624 32.176V31.408C38.9413 31.7067 38.408 31.9627 38.024 32.176C37.6827 32.3893 37.512 32.7093 37.512 33.136L39.176 33.2ZM31.88 32.944C32.5627 32.944 33.224 32.8587 33.864 32.688C34.5467 32.5173 34.888 32.1973 34.888 31.728C34.888 31.472 34.8027 31.28 34.632 31.152C34.504 30.9813 34.3333 30.896 34.12 30.896C33.992 30.896 33.5227 31.1093 32.712 31.536C31.9013 31.92 31.304 32.2613 30.92 32.56C31.0053 32.816 31.1973 32.944 31.496 32.944H31.88ZM37.256 31.28C36.8293 31.2373 36.4453 31.3653 36.104 31.664C35.7627 31.92 35.592 32.2827 35.592 32.752C36.4453 32.752 37.2773 32.304 38.088 31.408L37.256 31.28ZM27.4 33.712C27.4853 33.6693 27.8053 33.52 28.36 33.264C28.9573 32.9653 29.4267 32.6027 29.768 32.176C29.6827 31.8773 29.3627 31.728 28.808 31.728C28.3387 31.728 27.976 31.8773 27.72 32.176C27.464 32.4747 27.336 32.8587 27.336 33.328L27.4 33.712ZM43.464 32.816C44.0187 32.816 44.3387 32.4747 44.424 31.792C43.784 31.8347 43.464 32.176 43.464 32.816ZM48.264 36.848C48.264 37.4453 48.4987 37.744 48.968 37.744C49.3947 37.744 49.8427 37.36 50.312 36.592C50.824 35.824 51.08 35.2053 51.08 34.736V34.416C51.08 33.392 50.888 32.88 50.504 32.88C50.4613 32.9227 50.056 33.2 49.288 33.712C48.5627 34.1813 48.1147 34.5867 47.944 34.928C47.9867 34.928 48.0507 34.992 48.136 35.12C48.2213 35.248 48.3493 35.312 48.52 35.312C48.776 35.2267 49.1387 35.1627 49.608 35.12C50.0773 35.0347 50.4187 34.9707 50.632 34.928C50.4187 35.2693 50.0133 35.5253 49.416 35.696C48.9893 35.8667 48.6907 36.0373 48.52 36.208C48.3493 36.336 48.264 36.5493 48.264 36.848ZM27.016 35.312C28.0827 35.312 29 34.7787 29.768 33.712H29.32C28.7227 33.712 27.9547 34.2453 27.016 35.312ZM26.184 38.064C26.568 37.8507 27.016 37.5307 27.528 37.104C28.0827 36.6347 28.4453 36.3147 28.616 36.144L27.784 36.08C27.4 36.08 27.016 36.2933 26.632 36.72C26.2907 37.1467 26.12 37.424 26.12 37.552L26.184 38.064ZM51.72 36.08C51.5493 36.08 51.2933 36.2933 50.952 36.72C50.6107 37.1467 50.312 37.5733 50.056 38C49.8 38.384 49.608 38.6827 49.48 38.896C49.992 38.896 50.5893 38.7893 51.272 38.576C51.9547 38.32 52.296 37.9787 52.296 37.552C52.296 36.5707 52.104 36.08 51.72 36.08ZM51.016 41.2L53.064 39.344V38.704C52.552 38.704 51.8907 38.832 51.08 39.088C50.312 39.344 49.928 39.664 49.928 40.048C49.928 40.2613 50.0347 40.5173 50.248 40.816C50.4613 41.1147 50.6747 41.264 50.888 41.264L51.016 41.2ZM53.832 44.016C54.4293 44.016 54.728 43.7813 54.728 43.312C54.728 42.5867 54.3013 41.4987 53.448 40.048C53.3627 40.1333 53.1067 40.304 52.68 40.56C52.296 40.7733 51.976 41.0293 51.72 41.328C51.464 41.584 51.336 41.84 51.336 42.096C51.8907 42.096 52.4667 41.9467 53.064 41.648L51.528 43.248C51.6987 43.76 52.4667 44.016 53.832 44.016ZM24.584 43.248C24.6267 43.1627 24.9253 42.8213 25.48 42.224C26.0773 41.584 26.44 41.008 26.568 40.496L25.992 40.432C25.3947 40.432 24.8827 40.7733 24.456 41.456C24.0293 42.1387 23.816 42.8 23.816 43.44C23.816 43.7387 23.8373 43.9733 23.88 44.144C23.9653 44.3147 24.136 44.4 24.392 44.4C24.6053 44.4 24.776 44.2507 24.904 43.952C25.032 43.6107 25.096 43.376 25.096 43.248H24.584Z" fill="#FF004F"/>
<path d="M72.784 16.12C72.784 16.808 72.704 17.856 72.544 19.264C72.528 19.44 72.488 19.856 72.424 20.512C72.36 21.168 72.328 21.784 72.328 22.36C72.328 22.616 72.36 23 72.424 23.512C72.488 24.056 72.52 24.448 72.52 24.688C72.52 24.896 72.496 25.032 72.448 25.096C72.4 25.16 72.272 25.192 72.064 25.192C71.52 25.192 71.144 25.152 70.936 25.072C70.728 24.992 70.456 24.776 70.12 24.424C69.976 24.424 69.624 24.528 69.064 24.736C68.776 24.832 68.472 24.928 68.152 25.024C67.848 25.12 67.592 25.168 67.384 25.168C67.272 25.168 67.192 25.128 67.144 25.048C67.016 25.064 66.808 25.072 66.52 25.072C65.56 25.072 64.712 24.808 63.976 24.28C63.256 23.752 62.696 23.056 62.296 22.192C61.896 21.328 61.696 20.416 61.696 19.456C61.696 19.024 61.752 18.488 61.864 17.848C61.992 17.208 62.128 16.688 62.272 16.288C62.368 16.176 62.48 16.04 62.608 15.88C62.736 15.704 62.824 15.568 62.872 15.472V15.4C63.192 14.904 63.56 14.56 63.976 14.368C64.392 14.176 64.96 14.024 65.68 13.912C65.776 13.896 65.864 13.872 65.944 13.84C66.024 13.808 66.096 13.784 66.16 13.768C66.416 13.656 66.608 13.6 66.736 13.6V13.768C66.832 13.656 66.984 13.6 67.192 13.6C67.432 13.6 67.664 13.632 67.888 13.696C68.112 13.76 68.392 13.856 68.728 13.984C68.968 14.08 69.216 14.168 69.472 14.248C69.744 14.312 69.992 14.344 70.216 14.344L70.264 11.656L70.288 10.768C70.288 9.616 70.184 8.792 69.976 8.296H72.328C72.36 8.36 72.392 8.488 72.424 8.68C72.456 8.856 72.48 9.024 72.496 9.184C72.48 9.2 72.472 9.224 72.472 9.256C72.472 9.304 72.496 9.376 72.544 9.472C72.592 9.568 72.624 9.64 72.64 9.688C72.64 9.736 72.624 9.816 72.592 9.928C72.576 10.024 72.544 10.12 72.496 10.216C72.496 10.872 72.544 11.872 72.64 13.216C72.736 14.496 72.784 15.464 72.784 16.12ZM71.272 8.848C71.032 8.848 70.88 8.872 70.816 8.92C70.752 8.968 70.72 9.104 70.72 9.328C70.72 9.76 70.816 9.976 71.008 9.976L71.152 9.928L71.032 10.216H71.464C71.304 10.248 71.168 10.32 71.056 10.432C70.96 10.544 70.912 10.672 70.912 10.816C71.152 10.816 71.352 10.696 71.512 10.456C71.688 10.2 71.776 9.944 71.776 9.688C71.776 9.4 71.752 9.192 71.704 9.064C71.656 8.92 71.512 8.848 71.272 8.848ZM71.152 11.392C71.584 11.392 71.8 11.144 71.8 10.648H71.608L71.152 11.392ZM71.032 11.992C71.032 12.072 71.04 12.184 71.056 12.328C71.088 12.456 71.12 12.536 71.152 12.568C71.456 12.392 71.608 12.128 71.608 11.776C71.464 11.776 71.328 11.8 71.2 11.848C71.088 11.88 71.032 11.928 71.032 11.992ZM71.536 13.576C71.536 13.672 71.52 13.736 71.488 13.768C71.472 13.8 71.424 13.832 71.344 13.864C71.28 13.896 71.216 13.96 71.152 14.056L71.32 14.224L71.752 13.768V12.52C71.624 12.52 71.488 12.632 71.344 12.856C71.216 13.08 71.152 13.264 71.152 13.408C71.152 13.536 71.208 13.6 71.32 13.6L71.536 13.576ZM71.32 15.4C71.144 15.48 70.848 15.552 70.432 15.616C70.16 15.648 69.936 15.688 69.76 15.736C69.584 15.784 69.416 15.872 69.256 16C69.32 16.112 69.424 16.232 69.568 16.36C69.712 16.472 69.848 16.544 69.976 16.576C70.568 16.128 71.16 15.784 71.752 15.544C71.72 15.512 71.688 15.472 71.656 15.424C71.624 15.36 71.608 15.304 71.608 15.256C71.608 15.176 71.656 15.016 71.752 14.776C71.864 14.536 71.92 14.352 71.92 14.224H71.608L70.864 15.088L70.84 15.184C70.84 15.232 70.896 15.28 71.008 15.328C71.12 15.376 71.224 15.4 71.32 15.4ZM65.104 14.968L64.768 15.088C64.864 15.12 64.968 15.152 65.08 15.184C65.192 15.216 65.288 15.24 65.368 15.256C65.592 15.256 65.848 15.144 66.136 14.92C66.168 14.904 66.24 14.856 66.352 14.776C66.48 14.696 66.608 14.656 66.736 14.656H68.344C68.232 14.624 68.072 14.576 67.864 14.512C67.656 14.448 67.472 14.4 67.312 14.368C67.136 14.368 66.952 14.392 66.76 14.44C66.568 14.488 66.408 14.56 66.28 14.656V14.512C65.544 14.608 65.04 14.712 64.768 14.824L65.104 14.968ZM68.776 14.944C68.616 14.944 68.528 14.992 68.512 15.088C68.544 15.168 68.608 15.288 68.704 15.448C68.816 15.608 68.92 15.688 69.016 15.688L69.832 15.4C69.688 15.4 69.592 15.384 69.544 15.352C69.496 15.32 69.44 15.264 69.376 15.184C69.328 15.104 69.264 15.048 69.184 15.016C69.12 14.968 68.984 14.944 68.776 14.944ZM64.384 15.256C64.112 15.256 63.832 15.392 63.544 15.664C63.256 15.936 63.016 16.264 62.824 16.648C62.648 17.016 62.56 17.344 62.56 17.632C62.56 17.648 62.584 17.68 62.632 17.728C62.696 17.76 62.752 17.776 62.8 17.776C62.992 17.776 63.288 17.6 63.688 17.248C64.088 16.88 64.304 16.608 64.336 16.432L64.504 16.12C64.552 16.088 64.648 16.048 64.792 16C64.952 15.952 65.072 15.904 65.152 15.856C65.232 15.792 65.272 15.712 65.272 15.616L65.248 15.544C65.008 15.64 64.656 15.688 64.192 15.688C64.32 15.688 64.408 15.664 64.456 15.616C64.504 15.568 64.528 15.496 64.528 15.4C64.528 15.336 64.52 15.296 64.504 15.28C64.488 15.264 64.448 15.256 64.384 15.256ZM64.72 21.352C64.96 21.784 65.168 22.104 65.344 22.312C65.52 22.504 65.768 22.656 66.088 22.768C66.424 22.88 66.888 22.936 67.48 22.936C67.976 22.936 68.44 22.8 68.872 22.528C69.304 22.256 69.648 21.896 69.904 21.448C70.16 21 70.288 20.52 70.288 20.008C70.288 19.496 70.24 19.016 70.144 18.568C70.064 18.12 69.864 17.704 69.544 17.32C69.192 16.904 68.768 16.504 68.272 16.12C67.792 15.72 67.376 15.52 67.024 15.52C66.752 15.52 66.448 15.664 66.112 15.952C65.776 16.24 65.584 16.4 65.536 16.432C65.024 16.864 64.688 17.296 64.528 17.728C64.384 18.144 64.312 18.704 64.312 19.408L64.336 20.728L64.72 21.352ZM71.032 16.456C71.384 16.456 71.648 16.416 71.824 16.336C72 16.256 72.088 16.064 72.088 15.76C71.832 15.76 71.608 15.816 71.416 15.928C71.224 16.024 70.992 16.192 70.72 16.432L71.032 16.456ZM70.864 17.488C71.12 17.488 71.36 17.44 71.584 17.344C71.824 17.232 71.944 17.048 71.944 16.792C71.736 16.792 71.536 16.864 71.344 17.008C71.152 17.136 70.992 17.296 70.864 17.488ZM70.12 17.224C70.504 17.224 70.808 17.112 71.032 16.888H70.864C70.752 16.888 70.6 16.912 70.408 16.96C70.232 16.992 70.136 17.016 70.12 17.032V17.224ZM71.104 19.576C71.456 19.576 71.68 19.48 71.776 19.288C71.872 19.096 71.92 18.816 71.92 18.448L71.896 17.632C71.672 17.68 71.464 17.8 71.272 17.992C71.096 18.168 71.008 18.368 71.008 18.592C71.008 18.752 71.032 18.856 71.08 18.904C71.128 18.936 71.256 18.952 71.464 18.952C71.224 19.192 71.104 19.4 71.104 19.576ZM63.784 17.728C63.48 17.728 63.176 17.84 62.872 18.064L63.232 18.088H63.328C63.488 18.088 63.6 18.072 63.664 18.04C63.744 17.992 63.784 17.888 63.784 17.728ZM62.56 18.52V18.952L63.496 18.52H62.56ZM63.664 18.904C63.44 18.904 63.192 18.96 62.92 19.072C62.664 19.168 62.536 19.304 62.536 19.48L62.56 19.552L63.496 19.672C63.544 19.672 63.584 19.592 63.616 19.432C63.648 19.272 63.664 19.096 63.664 18.904ZM62.8 19.84C62.624 19.84 62.512 19.88 62.464 19.96C62.416 20.024 62.392 20.152 62.392 20.344C62.536 20.344 62.664 20.272 62.776 20.128C62.904 19.968 62.984 19.872 63.016 19.84H62.8ZM71.032 20.008C71.096 20.008 71.24 19.952 71.464 19.84H71.32C71.24 19.84 71.176 19.848 71.128 19.864C71.08 19.88 71.048 19.928 71.032 20.008ZM63.496 20.008C62.824 20.36 62.488 20.712 62.488 21.064C62.872 21.064 63.152 21.016 63.328 20.92C63.52 20.824 63.616 20.608 63.616 20.272C63.616 20.112 63.576 20.024 63.496 20.008ZM71.08 20.488C71.272 20.488 71.408 20.464 71.488 20.416C71.568 20.352 71.608 20.216 71.608 20.008C71.48 20.04 71.36 20.096 71.248 20.176C71.136 20.256 71.08 20.36 71.08 20.488ZM70.72 21.472C70.768 21.456 70.872 21.408 71.032 21.328C71.192 21.248 71.328 21.152 71.44 21.04C71.552 20.928 71.608 20.808 71.608 20.68C71.304 20.68 71.08 20.736 70.936 20.848C70.792 20.944 70.72 21.152 70.72 21.472ZM62.728 21.4C62.728 21.864 62.92 22.096 63.304 22.096C63.592 22.096 63.848 22.032 64.072 21.904L63.904 21.616C63.664 21.712 63.528 21.808 63.496 21.904L63.472 21.832C63.488 21.784 63.52 21.704 63.568 21.592C63.632 21.464 63.696 21.368 63.76 21.304C63.728 21.208 63.624 21.16 63.448 21.16C62.968 21.16 62.728 21.24 62.728 21.4ZM71.224 21.64C71.48 21.64 71.608 21.528 71.608 21.304C71.432 21.304 71.24 21.408 71.032 21.616L71.224 21.64ZM63.136 22.528C63.184 22.576 63.248 22.632 63.328 22.696C63.408 22.76 63.472 22.8 63.52 22.816C63.648 22.816 63.776 22.768 63.904 22.672C64.048 22.56 64.144 22.448 64.192 22.336C64.144 22.256 64.08 22.216 64 22.216C63.936 22.216 63.8 22.264 63.592 22.36C63.4 22.44 63.248 22.496 63.136 22.528ZM70.864 22.672C70.992 22.672 71.112 22.664 71.224 22.648C71.352 22.632 71.48 22.592 71.608 22.528C71.608 22.4 71.584 22.32 71.536 22.288C71.504 22.24 71.432 22.216 71.32 22.216C71.08 22.216 70.832 22.36 70.576 22.648L70.864 22.672ZM68.344 24.28C68.536 24.264 68.792 24.152 69.112 23.944C69.432 23.72 69.712 23.464 69.952 23.176C70.192 22.888 70.312 22.64 70.312 22.432L70.288 22.336C70.192 22.432 69.96 22.64 69.592 22.96C68.856 23.536 68.44 23.976 68.344 24.28ZM63.76 23.104C63.792 23.184 63.824 23.232 63.856 23.248C63.904 23.264 63.976 23.272 64.072 23.272C64.168 23.272 64.272 23.24 64.384 23.176C64.496 23.112 64.584 23.032 64.648 22.936H64.528C64.256 22.936 64 22.992 63.76 23.104ZM64.336 23.536C64.4 23.616 64.48 23.672 64.576 23.704C64.592 23.704 64.704 23.672 64.912 23.608C65.12 23.544 65.272 23.424 65.368 23.248C65.24 23.136 65.096 23.08 64.936 23.08C64.824 23.08 64.736 23.104 64.672 23.152C64.608 23.2 64.544 23.272 64.48 23.368C64.416 23.448 64.368 23.504 64.336 23.536ZM70.72 23.584C70.832 23.584 70.936 23.536 71.032 23.44C71.144 23.328 71.2 23.216 71.2 23.104H70.72V23.584ZM71.272 23.728C71.496 23.728 71.608 23.608 71.608 23.368C71.512 23.368 71.432 23.4 71.368 23.464C71.304 23.528 71.272 23.616 71.272 23.728ZM65.272 24.136C65.416 24.136 65.512 24.096 65.56 24.016C65.608 23.92 65.648 23.76 65.68 23.536C65.664 23.552 65.552 23.6 65.344 23.68C65.152 23.76 65.024 23.872 64.96 24.016C64.976 24.096 65.08 24.136 65.272 24.136ZM66.952 23.944C66.712 23.944 66.584 24.056 66.568 24.28C66.68 24.264 66.768 24.232 66.832 24.184C66.912 24.12 66.952 24.04 66.952 23.944ZM66.832 24.616C67.168 24.616 67.432 24.576 67.624 24.496C67.816 24.416 67.968 24.256 68.08 24.016L67.744 23.992C67.552 23.992 67.352 24.048 67.144 24.16C66.936 24.272 66.832 24.424 66.832 24.616ZM65.992 24.424C66.088 24.424 66.168 24.392 66.232 24.328C66.312 24.264 66.352 24.184 66.352 24.088C66.24 24.088 66.144 24.104 66.064 24.136C65.984 24.168 65.904 24.216 65.824 24.28C65.824 24.312 65.84 24.344 65.872 24.376C65.904 24.408 65.944 24.424 65.992 24.424ZM71.608 24.424C71.576 24.312 71.472 24.256 71.296 24.256L71.032 24.28V24.424H71.608ZM75.4789 19.744C75.4789 18.944 75.6229 18.064 75.9109 17.104C76.1989 16.144 76.5509 15.32 76.9669 14.632L77.0149 14.656C77.1109 14.656 77.3109 14.552 77.6149 14.344C77.9029 14.152 78.0869 14.056 78.1669 14.056C78.2789 14.024 78.5669 13.952 79.0309 13.84C79.5109 13.728 79.9589 13.672 80.3749 13.672V13.888C80.5989 13.808 80.7989 13.76 80.9749 13.744C81.1669 13.728 81.3589 13.72 81.5509 13.72C82.0469 13.72 82.5269 13.768 82.9909 13.864C83.4709 13.96 83.7109 14.128 83.7109 14.368C84.1109 14.368 84.4229 14.512 84.6469 14.8C84.8869 15.072 85.1189 15.448 85.3429 15.928C85.4229 16.104 85.5029 16.264 85.5829 16.408C85.6789 16.552 85.7669 16.648 85.8469 16.696V18.76L85.4149 19.072L85.5349 19.216C85.1029 19.552 84.1589 19.72 82.7029 19.72H81.4549C80.6549 19.72 80.1269 19.712 79.8709 19.696C79.6309 19.68 79.1509 19.616 78.4309 19.504C78.4149 19.408 78.3669 19.36 78.2869 19.36C78.2549 19.36 78.2149 19.368 78.1669 19.384C78.1189 19.4 78.0709 19.408 78.0229 19.408C78.0229 19.872 78.0789 20.384 78.1909 20.944C78.3189 21.504 78.5029 21.912 78.7429 22.168C78.8709 22.312 79.2229 22.488 79.7989 22.696C80.0869 22.792 80.2789 22.864 80.3749 22.912C80.6629 23.12 80.9109 23.224 81.1189 23.224C81.4869 23.224 81.8869 23.176 82.3189 23.08C82.7509 22.984 82.9989 22.928 83.0629 22.912C83.8309 22.704 84.4469 22.6 84.9109 22.6C85.1189 22.6 85.2549 22.696 85.3189 22.888C85.3989 23.064 85.4389 23.296 85.4389 23.584C85.4389 23.888 85.4149 24.08 85.3669 24.16C85.3189 24.24 85.2309 24.296 85.1029 24.328C84.9749 24.344 84.8709 24.408 84.7909 24.52C84.6949 24.552 83.7589 24.712 81.9829 25C81.3109 25 80.7109 24.984 80.1829 24.952C79.6709 24.92 79.1909 24.832 78.7429 24.688C78.2469 24.528 77.7429 24.152 77.2309 23.56C76.7349 22.968 76.3189 22.312 75.9829 21.592C75.6469 20.872 75.4789 20.256 75.4789 19.744ZM83.0629 15.16C83.0629 15.288 83.2069 15.48 83.4949 15.736C83.7829 15.992 83.9749 16.12 84.0709 16.12C84.1669 16.12 84.2949 16.088 84.4549 16.024C84.6149 15.96 84.6949 15.888 84.6949 15.808C84.6949 15.712 84.6629 15.576 84.5989 15.4C84.5349 15.208 84.5029 15.096 84.5029 15.064C84.5029 15.112 84.4629 15.152 84.3829 15.184C84.3189 15.2 84.2629 15.208 84.2149 15.208C84.0869 15.192 83.9349 15.128 83.7589 15.016C83.5989 14.904 83.5189 14.776 83.5189 14.632C83.0549 14.632 82.8229 14.52 82.8229 14.296C82.7909 14.296 82.7269 14.352 82.6309 14.464C82.5349 14.576 82.3589 14.632 82.1029 14.632C82.0229 14.632 81.9429 14.6 81.8629 14.536C81.7829 14.472 81.6789 14.44 81.5509 14.44L81.2389 14.464C81.2709 14.48 81.3429 14.584 81.4549 14.776C81.5829 14.968 81.6869 15.072 81.7669 15.088C81.7989 15.088 81.8549 15.064 81.9349 15.016C82.0309 14.952 82.1109 14.92 82.1749 14.92C82.2389 14.936 82.3589 14.984 82.5349 15.064C82.7109 15.128 82.8869 15.16 83.0629 15.16ZM76.6069 20.128C76.7509 20.128 76.8949 20.096 77.0389 20.032C77.1989 19.952 77.2789 19.848 77.2789 19.72C77.2789 19.688 77.2549 19.64 77.2069 19.576C77.1589 19.496 77.1349 19.424 77.1349 19.36C77.1669 19.248 77.2229 19.112 77.3029 18.952C77.3829 18.776 77.4229 18.6 77.4229 18.424C77.4229 18.296 77.3909 18.208 77.3269 18.16C77.2789 18.096 77.1989 18.04 77.0869 17.992C76.9909 17.944 76.9429 17.888 76.9429 17.824C76.9429 17.76 76.9909 17.616 77.0869 17.392C77.1989 17.152 77.2549 16.992 77.2549 16.912C77.2549 16.752 77.4069 16.488 77.7109 16.12C77.8869 15.88 78.0229 15.688 78.1189 15.544C78.2149 15.4 78.2629 15.256 78.2629 15.112C78.3269 15.112 78.4149 15.128 78.5269 15.16C78.6389 15.192 78.7509 15.208 78.8629 15.208C78.9109 15.208 78.9429 15.168 78.9589 15.088C78.9749 14.992 78.9989 14.936 79.0309 14.92C79.1589 14.872 79.4149 14.848 79.7989 14.848C80.1669 14.832 80.4469 14.816 80.6389 14.8C80.8309 14.768 80.9349 14.712 80.9509 14.632C80.7749 14.552 80.6069 14.504 80.4469 14.488C80.2869 14.456 80.0789 14.44 79.8229 14.44C78.7349 14.44 77.9029 14.808 77.3269 15.544C76.7669 16.28 76.4869 17.208 76.4869 18.328H77.2549V18.472L76.3669 19.36V19.816L76.6549 19.648L76.3669 20.104L76.6069 20.128ZM77.9989 17.32C78.0789 17.48 78.5429 17.592 79.3909 17.656C80.2549 17.704 80.9749 17.728 81.5509 17.728C81.8389 17.728 82.2229 17.696 82.7029 17.632C83.1509 17.568 83.5189 17.536 83.8069 17.536C83.8069 17.456 83.7509 17.296 83.6389 17.056C83.5269 16.8 83.4389 16.672 83.3749 16.672L83.3269 16.696C83.2149 16.36 82.8549 16.08 82.2469 15.856C81.6549 15.632 81.1509 15.52 80.7349 15.52C80.0949 15.52 79.5349 15.672 79.0549 15.976C78.5749 16.28 78.2229 16.728 77.9989 17.32ZM84.6949 17.824C84.6949 18.064 84.6149 18.224 84.4549 18.304C84.2949 18.368 84.0629 18.4 83.7589 18.4C83.5029 18.416 83.3109 18.448 83.1829 18.496C83.0549 18.544 82.9909 18.648 82.9909 18.808C83.5189 18.808 83.9349 18.792 84.2389 18.76C84.5429 18.728 84.7269 18.632 84.7909 18.472C84.8709 18.6 84.9829 18.664 85.1269 18.664C85.1269 18.536 85.0949 18.4 85.0309 18.256C84.9829 18.096 84.9589 17.976 84.9589 17.896C84.9589 17.832 84.9909 17.776 85.0549 17.728C85.1349 17.68 85.1909 17.624 85.2229 17.56C85.2709 17.496 85.2949 17.368 85.2949 17.176C85.2949 16.552 85.1109 16.24 84.7429 16.24C84.5829 16.24 84.4789 16.288 84.4309 16.384C84.3989 16.464 84.3829 16.624 84.3829 16.864C84.5589 17.392 84.6629 17.68 84.6949 17.728V17.824ZM78.1909 18.112C78.0469 18.112 77.9189 18.168 77.8069 18.28C77.7109 18.392 77.6629 18.52 77.6629 18.664C77.8709 18.664 78.0069 18.624 78.0709 18.544C78.1509 18.464 78.1909 18.32 78.1909 18.112ZM78.6469 18.328C78.6149 18.328 78.5189 18.4 78.3589 18.544C78.2149 18.688 78.0949 18.816 77.9989 18.928L78.5029 18.832C78.5349 18.832 78.6389 18.816 78.8149 18.784C79.0069 18.736 79.2309 18.632 79.4869 18.472C79.4389 18.456 79.1909 18.408 78.7429 18.328H78.6469ZM79.4869 18.76C79.8069 18.872 80.0869 18.928 80.3269 18.928C80.4709 18.928 80.5909 18.88 80.6869 18.784C80.7989 18.688 80.8549 18.568 80.8549 18.424C80.0549 18.424 79.5989 18.536 79.4869 18.76ZM81.7669 18.616C81.5429 18.616 81.3189 18.648 81.0949 18.712C80.8869 18.76 80.7829 18.856 80.7829 19L80.8069 19.072C80.8389 19.072 81.1189 19.056 81.6469 19.024C82.1909 18.976 82.5029 18.84 82.5829 18.616H81.9109H81.7669ZM77.1589 20.344C76.8549 20.344 76.6629 20.392 76.5829 20.488C76.5029 20.568 76.4629 20.768 76.4629 21.088C76.6549 21.088 76.8149 21.016 76.9429 20.872C77.0869 20.712 77.1589 20.536 77.1589 20.344ZM77.2549 20.68C77.2229 20.728 77.1349 20.856 76.9909 21.064C76.8629 21.256 76.7989 21.448 76.7989 21.64C77.2629 21.64 77.5669 21.576 77.7109 21.448C77.6629 21.336 77.5829 21.208 77.4709 21.064C77.3589 20.904 77.2869 20.776 77.2549 20.68ZM76.9669 22.024C77.0469 22.072 77.1109 22.168 77.1589 22.312C77.2069 22.44 77.2389 22.544 77.2549 22.624C77.6229 22.432 77.8069 22.128 77.8069 21.712C77.3589 21.712 77.0789 21.816 76.9669 22.024ZM78.1669 23.368C78.3589 23.08 78.4549 22.896 78.4549 22.816L78.4309 22.744L77.5669 22.624L77.3989 22.744L78.1669 23.368ZM78.4309 23.512C78.4469 23.544 78.4709 23.576 78.5029 23.608C78.5349 23.624 78.5669 23.64 78.5989 23.656C78.7429 23.624 78.9029 23.552 79.0789 23.44C79.2549 23.328 79.3429 23.248 79.3429 23.2C79.3429 23.12 79.3109 23.056 79.2469 23.008C79.1989 22.944 79.1589 22.912 79.1269 22.912C78.9829 22.912 78.8309 22.984 78.6709 23.128C78.5109 23.256 78.4309 23.384 78.4309 23.512ZM79.0309 23.944C79.3829 24.024 79.5829 24.08 79.6309 24.112C79.7109 24.192 79.7589 24.232 79.7749 24.232C80.0149 24.232 80.2229 24.16 80.3989 24.016C80.5909 23.856 80.6869 23.664 80.6869 23.44C80.0789 23.44 79.7749 23.512 79.7749 23.656C79.7749 23.608 79.7429 23.544 79.6789 23.464C79.6309 23.384 79.5909 23.344 79.5589 23.344C79.5269 23.344 79.4229 23.424 79.2469 23.584C79.0869 23.728 79.0069 23.824 79.0069 23.872L79.0309 23.944ZM80.6629 24.112C80.7429 24.192 80.7909 24.232 80.8069 24.232C81.0789 24.232 81.3989 24.2 81.7669 24.136C82.1349 24.072 82.3669 24.032 82.4629 24.016C83.1349 23.888 83.5749 23.824 83.7829 23.824L84.0709 23.944C84.2629 23.944 84.4389 23.904 84.5989 23.824C84.7589 23.744 84.8389 23.616 84.8389 23.44C84.5189 23.44 84.0869 23.504 83.5429 23.632C83.4629 23.648 83.3269 23.68 83.1349 23.728C82.9429 23.776 82.7589 23.808 82.5829 23.824C82.2629 23.824 81.9189 23.84 81.5509 23.872C81.1989 23.888 80.9509 23.912 80.8069 23.944L80.6629 24.112ZM90.4394 24.52C89.8154 21.912 89.1274 19.936 88.3754 18.592C88.1994 18.48 88.0474 18.304 87.9194 18.064C87.7914 17.824 87.6874 17.6 87.6074 17.392C87.5274 17.168 87.4794 17.032 87.4634 16.984C87.4474 16.984 87.2954 16.64 87.0074 15.952C87.0074 15.776 86.9354 15.488 86.7914 15.088C86.6474 14.672 86.5674 14.416 86.5514 14.32C86.5514 14.016 86.8314 13.864 87.3914 13.864L87.9434 13.888C88.1194 13.888 88.3034 14.056 88.4954 14.392C88.7034 14.728 88.8794 15.104 89.0234 15.52C89.1674 15.936 89.2394 16.224 89.2394 16.384C89.6234 17.456 90.0554 18.56 90.5354 19.696C91.0314 20.816 91.4954 21.64 91.9274 22.168L92.0474 22C92.1434 21.664 92.2714 21.32 92.4314 20.968C92.5914 20.6 92.6954 20.368 92.7434 20.272C93.0154 19.744 93.2314 19.24 93.3914 18.76L93.5834 18.16C94.4634 15.312 94.9434 13.888 95.0234 13.888H96.7994L96.9434 14.008C96.9434 15.496 96.6634 17.024 96.1034 18.592C95.5434 20.144 94.7834 21.88 93.8234 23.8C93.7754 23.88 93.7274 24.032 93.6794 24.256C93.6314 24.464 93.5754 24.64 93.5114 24.784C93.4634 24.928 93.3674 25.048 93.2234 25.144L92.0474 25.168C91.6634 25.168 91.3354 25.12 91.0634 25.024C90.8074 24.944 90.5994 24.776 90.4394 24.52ZM95.2874 15.064C95.3834 15.112 95.4314 15.16 95.4314 15.208C95.4314 15.256 95.3914 15.312 95.3114 15.376C95.2474 15.424 95.1994 15.464 95.1674 15.496C95.4554 15.496 95.7034 15.472 95.9114 15.424C96.1194 15.36 96.2634 15.24 96.3434 15.064C96.2634 14.92 96.2234 14.808 96.2234 14.728C96.2234 14.632 96.2234 14.568 96.2234 14.536C95.8714 14.536 95.6234 14.56 95.4794 14.608C95.3514 14.64 95.2874 14.792 95.2874 15.064ZM87.3194 14.536C87.3194 14.712 87.4154 15.056 87.6074 15.568C87.8154 16.08 88.0394 16.552 88.2794 16.984C88.5354 17.4 88.7194 17.608 88.8314 17.608C88.8314 17.384 88.7434 17.016 88.5674 16.504C88.4074 15.992 88.2074 15.536 87.9674 15.136C87.7274 14.736 87.5114 14.536 87.3194 14.536ZM95.9114 15.64C95.5594 15.704 95.2954 15.792 95.1194 15.904C94.9434 16 94.8554 16.176 94.8554 16.432C95.1594 16.432 95.5114 16.168 95.9114 15.64ZM95.9114 16.24C95.4634 16.368 95.1194 16.616 94.8794 16.984L95.5034 17.008C95.6954 17.008 95.8074 16.968 95.8394 16.888C95.8874 16.792 95.9114 16.576 95.9114 16.24ZM94.5434 17.416C94.4634 17.416 94.3994 17.512 94.3514 17.704C94.3034 17.88 94.2794 18.032 94.2794 18.16C94.5034 18.16 94.7434 18.088 94.9994 17.944C95.2554 17.8 95.4554 17.624 95.5994 17.416H94.5434ZM88.9514 18.256C88.9514 18.368 88.9674 18.456 88.9994 18.52C89.0314 18.568 89.1114 18.592 89.2394 18.592C89.1754 18.288 89.0794 18.104 88.9514 18.04V18.256ZM94.7114 18.904C94.6954 19.016 94.6154 19.072 94.4714 19.072C94.4394 19.072 94.3594 19.072 94.2314 19.072C94.1034 19.056 93.9994 19.112 93.9194 19.24C93.8554 19.352 93.8234 19.536 93.8234 19.792C94.9434 19.344 95.5034 18.832 95.5034 18.256L95.4794 18.04C95.1754 18.232 94.8234 18.416 94.4234 18.592L94.7114 18.904ZM89.3834 19.12C89.3994 19.248 89.4394 19.464 89.5034 19.768C89.5674 20.072 89.6314 20.224 89.6954 20.224H90.0074C90.0074 20.048 89.9354 19.808 89.7914 19.504C89.6474 19.184 89.5114 18.984 89.3834 18.904V19.12ZM93.8234 20.104C94.0154 20.296 94.2154 20.392 94.4234 20.392C94.5834 20.392 94.7034 20.304 94.7834 20.128C94.8634 19.952 94.9034 19.768 94.9034 19.576C94.7754 19.576 94.6154 19.672 94.4234 19.864C94.2634 20.056 94.1194 20.152 93.9914 20.152C93.9434 20.152 93.8874 20.136 93.8234 20.104ZM89.9834 20.68C89.9834 20.744 90.0234 20.792 90.1034 20.824C90.1994 20.856 90.2714 20.872 90.3194 20.872C90.3194 20.584 90.2634 20.424 90.1514 20.392C90.1194 20.408 90.0794 20.448 90.0314 20.512C89.9994 20.576 89.9834 20.632 89.9834 20.68ZM93.3914 20.536C93.3274 20.648 93.2634 20.808 93.1994 21.016C93.1354 21.208 93.0954 21.352 93.0794 21.448C93.1754 21.416 93.3434 21.336 93.5834 21.208C93.8234 21.064 93.9994 20.936 94.1114 20.824C94.0634 20.712 93.9674 20.64 93.8234 20.608C93.6794 20.56 93.5354 20.536 93.3914 20.536ZM90.0074 21.184C90.0074 21.552 90.1674 21.736 90.4874 21.736C90.4874 21.528 90.4554 21.376 90.3914 21.28C90.3274 21.184 90.2074 21.096 90.0314 21.016L90.0074 21.184ZM93.5594 21.568C93.6074 21.712 93.7914 21.816 94.1114 21.88V21.424C94.0634 21.44 93.9834 21.464 93.8714 21.496C93.7754 21.512 93.6714 21.536 93.5594 21.568ZM90.5834 22.168C90.5834 22.296 90.6234 22.384 90.7034 22.432C90.7834 22.48 90.9034 22.504 91.0634 22.504C91.0634 22.376 91.0394 22.24 90.9914 22.096C90.9594 21.936 90.8954 21.856 90.7994 21.856C90.6554 21.856 90.5834 21.96 90.5834 22.168ZM92.7914 22.456C92.8074 22.456 92.8314 22.464 92.8634 22.48C92.8954 22.48 92.9434 22.48 93.0074 22.48C93.1514 22.48 93.2794 22.464 93.3914 22.432C93.5034 22.384 93.5594 22.32 93.5594 22.24C93.5594 22.128 93.4874 22.04 93.3434 21.976C93.1994 21.912 93.0634 21.88 92.9354 21.88L92.7914 22.456ZM90.7274 22.744C90.7594 22.856 90.8074 23.056 90.8714 23.344C90.9354 23.632 91.0074 23.856 91.0874 24.016C91.1834 24.176 91.2874 24.256 91.3994 24.256C91.6234 24.256 91.9114 24.2 92.2634 24.088C92.6314 23.96 92.8554 23.816 92.9354 23.656L92.9834 23.752C92.9834 23.768 92.9354 23.816 92.8394 23.896C92.7594 23.96 92.7034 24.024 92.6714 24.088L92.7914 24.256C92.9674 24.128 93.1594 23.872 93.3674 23.488C93.5914 23.088 93.7034 22.784 93.7034 22.576C93.6074 22.608 93.4394 22.672 93.1994 22.768C92.9594 22.864 92.7834 22.96 92.6714 23.056L92.9354 23.344C92.8554 23.36 92.7034 23.432 92.4794 23.56C92.2554 23.72 92.0954 23.8 91.9994 23.8C91.9194 23.784 91.8074 23.744 91.6634 23.68C91.5354 23.616 91.4154 23.552 91.3034 23.488C91.3354 23.472 91.3674 23.448 91.3994 23.416C91.4314 23.384 91.4554 23.36 91.4714 23.344C91.4714 23.088 91.4474 22.92 91.3994 22.84C91.3514 22.76 91.2234 22.72 91.0154 22.72L90.7274 22.744ZM99.5024 19.744C99.5024 18.944 99.6464 18.064 99.9344 17.104C100.222 16.144 100.574 15.32 100.99 14.632L101.038 14.656C101.134 14.656 101.334 14.552 101.638 14.344C101.926 14.152 102.11 14.056 102.19 14.056C102.302 14.024 102.59 13.952 103.054 13.84C103.534 13.728 103.982 13.672 104.398 13.672V13.888C104.622 13.808 104.822 13.76 104.998 13.744C105.19 13.728 105.382 13.72 105.574 13.72C106.07 13.72 106.55 13.768 107.014 13.864C107.494 13.96 107.734 14.128 107.734 14.368C108.134 14.368 108.446 14.512 108.67 14.8C108.91 15.072 109.142 15.448 109.366 15.928C109.446 16.104 109.526 16.264 109.606 16.408C109.702 16.552 109.79 16.648 109.87 16.696V18.76L109.438 19.072L109.558 19.216C109.126 19.552 108.182 19.72 106.726 19.72H105.478C104.678 19.72 104.15 19.712 103.894 19.696C103.654 19.68 103.174 19.616 102.454 19.504C102.438 19.408 102.39 19.36 102.31 19.36C102.278 19.36 102.238 19.368 102.19 19.384C102.142 19.4 102.094 19.408 102.046 19.408C102.046 19.872 102.102 20.384 102.214 20.944C102.342 21.504 102.526 21.912 102.766 22.168C102.894 22.312 103.246 22.488 103.822 22.696C104.11 22.792 104.302 22.864 104.398 22.912C104.686 23.12 104.934 23.224 105.142 23.224C105.51 23.224 105.91 23.176 106.342 23.08C106.774 22.984 107.022 22.928 107.086 22.912C107.854 22.704 108.47 22.6 108.934 22.6C109.142 22.6 109.278 22.696 109.342 22.888C109.422 23.064 109.462 23.296 109.462 23.584C109.462 23.888 109.438 24.08 109.39 24.16C109.342 24.24 109.254 24.296 109.126 24.328C108.998 24.344 108.894 24.408 108.814 24.52C108.718 24.552 107.782 24.712 106.006 25C105.334 25 104.734 24.984 104.206 24.952C103.694 24.92 103.214 24.832 102.766 24.688C102.27 24.528 101.766 24.152 101.254 23.56C100.758 22.968 100.342 22.312 100.006 21.592C99.6704 20.872 99.5024 20.256 99.5024 19.744ZM107.086 15.16C107.086 15.288 107.23 15.48 107.518 15.736C107.806 15.992 107.998 16.12 108.094 16.12C108.19 16.12 108.318 16.088 108.478 16.024C108.638 15.96 108.718 15.888 108.718 15.808C108.718 15.712 108.686 15.576 108.622 15.4C108.558 15.208 108.526 15.096 108.526 15.064C108.526 15.112 108.486 15.152 108.406 15.184C108.342 15.2 108.286 15.208 108.238 15.208C108.11 15.192 107.958 15.128 107.782 15.016C107.622 14.904 107.542 14.776 107.542 14.632C107.078 14.632 106.846 14.52 106.846 14.296C106.814 14.296 106.75 14.352 106.654 14.464C106.558 14.576 106.382 14.632 106.126 14.632C106.046 14.632 105.966 14.6 105.886 14.536C105.806 14.472 105.702 14.44 105.574 14.44L105.262 14.464C105.294 14.48 105.366 14.584 105.478 14.776C105.606 14.968 105.71 15.072 105.79 15.088C105.822 15.088 105.878 15.064 105.958 15.016C106.054 14.952 106.134 14.92 106.198 14.92C106.262 14.936 106.382 14.984 106.558 15.064C106.734 15.128 106.91 15.16 107.086 15.16ZM100.63 20.128C100.774 20.128 100.918 20.096 101.062 20.032C101.222 19.952 101.302 19.848 101.302 19.72C101.302 19.688 101.278 19.64 101.23 19.576C101.182 19.496 101.158 19.424 101.158 19.36C101.19 19.248 101.246 19.112 101.326 18.952C101.406 18.776 101.446 18.6 101.446 18.424C101.446 18.296 101.414 18.208 101.35 18.16C101.302 18.096 101.222 18.04 101.11 17.992C101.014 17.944 100.966 17.888 100.966 17.824C100.966 17.76 101.014 17.616 101.11 17.392C101.222 17.152 101.278 16.992 101.278 16.912C101.278 16.752 101.43 16.488 101.734 16.12C101.91 15.88 102.046 15.688 102.142 15.544C102.238 15.4 102.286 15.256 102.286 15.112C102.35 15.112 102.438 15.128 102.55 15.16C102.662 15.192 102.774 15.208 102.886 15.208C102.934 15.208 102.966 15.168 102.982 15.088C102.998 14.992 103.022 14.936 103.054 14.92C103.182 14.872 103.438 14.848 103.822 14.848C104.19 14.832 104.47 14.816 104.662 14.8C104.854 14.768 104.958 14.712 104.974 14.632C104.798 14.552 104.63 14.504 104.47 14.488C104.31 14.456 104.102 14.44 103.846 14.44C102.758 14.44 101.926 14.808 101.35 15.544C100.79 16.28 100.51 17.208 100.51 18.328H101.278V18.472L100.39 19.36V19.816L100.678 19.648L100.39 20.104L100.63 20.128ZM102.022 17.32C102.102 17.48 102.566 17.592 103.414 17.656C104.278 17.704 104.998 17.728 105.574 17.728C105.862 17.728 106.246 17.696 106.726 17.632C107.174 17.568 107.542 17.536 107.83 17.536C107.83 17.456 107.774 17.296 107.662 17.056C107.55 16.8 107.462 16.672 107.398 16.672L107.35 16.696C107.238 16.36 106.878 16.08 106.27 15.856C105.678 15.632 105.174 15.52 104.758 15.52C104.118 15.52 103.558 15.672 103.078 15.976C102.598 16.28 102.246 16.728 102.022 17.32ZM108.718 17.824C108.718 18.064 108.638 18.224 108.478 18.304C108.318 18.368 108.086 18.4 107.782 18.4C107.526 18.416 107.334 18.448 107.206 18.496C107.078 18.544 107.014 18.648 107.014 18.808C107.542 18.808 107.958 18.792 108.262 18.76C108.566 18.728 108.75 18.632 108.814 18.472C108.894 18.6 109.006 18.664 109.15 18.664C109.15 18.536 109.118 18.4 109.054 18.256C109.006 18.096 108.982 17.976 108.982 17.896C108.982 17.832 109.014 17.776 109.078 17.728C109.158 17.68 109.214 17.624 109.246 17.56C109.294 17.496 109.318 17.368 109.318 17.176C109.318 16.552 109.134 16.24 108.766 16.24C108.606 16.24 108.502 16.288 108.454 16.384C108.422 16.464 108.406 16.624 108.406 16.864C108.582 17.392 108.686 17.68 108.718 17.728V17.824ZM102.214 18.112C102.07 18.112 101.942 18.168 101.83 18.28C101.734 18.392 101.686 18.52 101.686 18.664C101.894 18.664 102.03 18.624 102.094 18.544C102.174 18.464 102.214 18.32 102.214 18.112ZM102.67 18.328C102.638 18.328 102.542 18.4 102.382 18.544C102.238 18.688 102.118 18.816 102.022 18.928L102.526 18.832C102.558 18.832 102.662 18.816 102.838 18.784C103.03 18.736 103.254 18.632 103.51 18.472C103.462 18.456 103.214 18.408 102.766 18.328H102.67ZM103.51 18.76C103.83 18.872 104.11 18.928 104.35 18.928C104.494 18.928 104.614 18.88 104.71 18.784C104.822 18.688 104.878 18.568 104.878 18.424C104.078 18.424 103.622 18.536 103.51 18.76ZM105.79 18.616C105.566 18.616 105.342 18.648 105.118 18.712C104.91 18.76 104.806 18.856 104.806 19L104.83 19.072C104.862 19.072 105.142 19.056 105.67 19.024C106.214 18.976 106.526 18.84 106.606 18.616H105.934H105.79ZM101.182 20.344C100.878 20.344 100.686 20.392 100.606 20.488C100.526 20.568 100.486 20.768 100.486 21.088C100.678 21.088 100.838 21.016 100.966 20.872C101.11 20.712 101.182 20.536 101.182 20.344ZM101.278 20.68C101.246 20.728 101.158 20.856 101.014 21.064C100.886 21.256 100.822 21.448 100.822 21.64C101.286 21.64 101.59 21.576 101.734 21.448C101.686 21.336 101.606 21.208 101.494 21.064C101.382 20.904 101.31 20.776 101.278 20.68ZM100.99 22.024C101.07 22.072 101.134 22.168 101.182 22.312C101.23 22.44 101.262 22.544 101.278 22.624C101.646 22.432 101.83 22.128 101.83 21.712C101.382 21.712 101.102 21.816 100.99 22.024ZM102.19 23.368C102.382 23.08 102.478 22.896 102.478 22.816L102.454 22.744L101.59 22.624L101.422 22.744L102.19 23.368ZM102.454 23.512C102.47 23.544 102.494 23.576 102.526 23.608C102.558 23.624 102.59 23.64 102.622 23.656C102.766 23.624 102.926 23.552 103.102 23.44C103.278 23.328 103.366 23.248 103.366 23.2C103.366 23.12 103.334 23.056 103.27 23.008C103.222 22.944 103.182 22.912 103.15 22.912C103.006 22.912 102.854 22.984 102.694 23.128C102.534 23.256 102.454 23.384 102.454 23.512ZM103.054 23.944C103.406 24.024 103.606 24.08 103.654 24.112C103.734 24.192 103.782 24.232 103.798 24.232C104.038 24.232 104.246 24.16 104.422 24.016C104.614 23.856 104.71 23.664 104.71 23.44C104.102 23.44 103.798 23.512 103.798 23.656C103.798 23.608 103.766 23.544 103.702 23.464C103.654 23.384 103.614 23.344 103.582 23.344C103.55 23.344 103.446 23.424 103.27 23.584C103.11 23.728 103.03 23.824 103.03 23.872L103.054 23.944ZM104.686 24.112C104.766 24.192 104.814 24.232 104.83 24.232C105.102 24.232 105.422 24.2 105.79 24.136C106.158 24.072 106.39 24.032 106.486 24.016C107.158 23.888 107.598 23.824 107.806 23.824L108.094 23.944C108.286 23.944 108.462 23.904 108.622 23.824C108.782 23.744 108.862 23.616 108.862 23.44C108.542 23.44 108.11 23.504 107.566 23.632C107.486 23.648 107.35 23.68 107.158 23.728C106.966 23.776 106.782 23.808 106.606 23.824C106.286 23.824 105.942 23.84 105.574 23.872C105.222 23.888 104.974 23.912 104.83 23.944L104.686 24.112ZM115.97 23.56C116.29 23.672 116.45 23.776 116.45 23.872C116.45 23.968 116.322 24.328 116.066 24.952C115.922 25.24 115.85 25.408 115.85 25.456L115.538 25.576V25.384C115.346 25.384 115.17 25.392 115.01 25.408C114.85 25.424 114.698 25.432 114.554 25.432C114.33 25.432 114.154 25.384 114.026 25.288C113.914 25.208 113.858 25.032 113.858 24.76C113.442 24.76 113.13 24.608 112.922 24.304C112.714 24 112.498 23.544 112.274 22.936C112.162 21.496 112.082 20.024 112.034 18.52C112.002 17 111.986 15.216 111.986 13.168V11.632C111.986 10.24 112.042 9.072 112.154 8.128C112.426 7.984 112.77 7.888 113.186 7.84C113.25 7.824 113.394 7.8 113.618 7.768C113.842 7.72 114.042 7.648 114.218 7.552L114.29 7.528C114.434 7.528 114.506 7.616 114.506 7.792C114.506 9.072 114.458 11.008 114.362 13.6C114.298 14.864 114.25 16.152 114.218 17.464C114.218 17.816 114.186 18.296 114.122 18.904C114.106 19.032 114.09 19.2 114.074 19.408C114.058 19.616 114.05 19.864 114.05 20.152C114.05 21.192 114.178 22.024 114.434 22.648C114.69 23.256 115.202 23.56 115.97 23.56ZM113.642 8.608C113.226 8.608 112.954 8.712 112.826 8.92C112.698 9.112 112.634 9.44 112.634 9.904H112.97C112.97 9.936 112.978 9.96 112.994 9.976C113.01 9.992 113.018 10.008 113.018 10.024C113.018 10.056 112.978 10.096 112.898 10.144C112.834 10.176 112.778 10.192 112.73 10.192V11.08C112.778 11.016 112.874 10.888 113.018 10.696C113.178 10.488 113.282 10.376 113.33 10.36C113.314 10.408 113.282 10.512 113.234 10.672C113.186 10.816 113.114 10.952 113.018 11.08C113.034 11.08 113.066 11.088 113.114 11.104C113.162 11.104 113.218 11.104 113.282 11.104C113.522 11.104 113.642 11.056 113.642 10.96V8.608ZM112.73 16C112.778 16.08 112.93 16.12 113.186 16.12C113.138 16.184 113.074 16.24 112.994 16.288C112.914 16.32 112.85 16.36 112.802 16.408C112.754 16.456 112.73 16.528 112.73 16.624C112.73 16.752 112.762 16.88 112.826 17.008C112.89 17.136 112.922 17.288 112.922 17.464H113.474V16.696H113.186C113.378 16.44 113.474 16.08 113.474 15.616C113.474 15.52 113.45 15.392 113.402 15.232C113.354 15.072 113.33 14.944 113.33 14.848L113.474 14.248C113.586 13.88 113.642 13.512 113.642 13.144C113.626 13.096 113.602 13.048 113.57 13C113.538 12.936 113.506 12.888 113.474 12.856C113.474 13.08 113.378 13.192 113.186 13.192L113.018 13.144C113.13 13.096 113.202 13.024 113.234 12.928C113.266 12.832 113.282 12.712 113.282 12.568H113.642V11.68C113.546 11.792 113.41 11.928 113.234 12.088C113.074 12.232 112.978 12.304 112.946 12.304L112.874 12.28C113.178 11.944 113.378 11.648 113.474 11.392C113.298 11.392 113.106 11.416 112.898 11.464C112.69 11.496 112.586 11.584 112.586 11.728C112.586 12.096 112.634 12.352 112.73 12.496C112.826 12.64 112.874 12.72 112.874 12.736C112.874 12.768 112.826 12.896 112.73 13.12C112.634 13.328 112.586 13.488 112.586 13.6C112.618 13.584 112.658 13.56 112.706 13.528C112.77 13.48 112.826 13.456 112.874 13.456C112.906 13.456 112.938 13.48 112.97 13.528C113.002 13.56 113.018 13.584 113.018 13.6C112.97 13.648 112.914 13.728 112.85 13.84C112.786 13.952 112.746 14.04 112.73 14.104C112.73 14.2 112.77 14.264 112.85 14.296C112.946 14.312 113.002 14.328 113.018 14.344C112.842 14.392 112.73 14.52 112.682 14.728C112.65 14.936 112.634 15.168 112.634 15.424C112.762 15.424 112.866 15.392 112.946 15.328C113.026 15.248 113.082 15.208 113.114 15.208L113.186 15.232C113.138 15.36 113.058 15.504 112.946 15.664C112.85 15.824 112.778 15.936 112.73 16ZM113.498 17.728C113.274 17.728 113.114 17.792 113.018 17.92C112.922 18.048 112.874 18.24 112.874 18.496C112.906 18.464 112.986 18.408 113.114 18.328C113.258 18.248 113.354 18.16 113.402 18.064C113.466 17.968 113.498 17.856 113.498 17.728ZM113.33 23.536C113.41 23.536 113.506 23.368 113.618 23.032C113.73 22.696 113.786 22.464 113.786 22.336C113.786 22.176 113.762 22.072 113.714 22.024C113.682 21.976 113.602 21.952 113.474 21.952V19.528L113.33 19.384C113.458 19.384 113.522 19.072 113.522 18.448C113.362 18.448 113.21 18.536 113.066 18.712C112.922 18.872 112.85 19.04 112.85 19.216C112.85 19.232 112.874 19.264 112.922 19.312C112.986 19.344 113.018 19.368 113.018 19.384L112.874 19.528V20.56C112.986 20.592 113.042 20.696 113.042 20.872C113.042 20.984 113.018 21.16 112.97 21.4C112.906 21.56 112.874 21.736 112.874 21.928C112.874 22.104 112.954 22.272 113.114 22.432C113.274 22.592 113.354 22.728 113.354 22.84C113.354 22.888 113.306 22.976 113.21 23.104C113.114 23.216 113.05 23.312 113.018 23.392C113.034 23.392 113.082 23.416 113.162 23.464C113.242 23.512 113.298 23.536 113.33 23.536ZM115.25 24.568C115.266 24.552 115.298 24.52 115.346 24.472C115.41 24.424 115.442 24.368 115.442 24.304C115.442 24.272 115.314 24.192 115.058 24.064C114.802 23.936 114.618 23.848 114.506 23.8C114.458 23.8 114.378 23.832 114.266 23.896C114.154 23.944 114.034 23.968 113.906 23.968C113.954 23.952 114.01 23.904 114.074 23.824C114.154 23.744 114.202 23.696 114.218 23.68C114.218 23.568 114.186 23.456 114.122 23.344C114.074 23.232 114.002 23.152 113.906 23.104C113.858 23.104 113.778 23.2 113.666 23.392C113.57 23.568 113.506 23.704 113.474 23.8C113.474 24.136 113.674 24.4 114.074 24.592C114.474 24.784 114.842 24.88 115.178 24.88C115.274 24.88 115.354 24.816 115.418 24.688L115.25 24.568ZM126.366 13.96C127.534 14.744 128.366 15.632 128.862 16.624C129.374 17.616 129.63 18.832 129.63 20.272L129.606 21.064C129.574 21.144 129.51 21.208 129.414 21.256C129.334 21.304 129.27 21.352 129.222 21.4C129.174 21.448 129.15 21.536 129.15 21.664C129.15 21.728 129.158 21.792 129.174 21.856C129.19 21.904 129.23 21.944 129.294 21.976C129.198 21.976 129.118 22.04 129.054 22.168C129.006 22.28 128.926 22.488 128.814 22.792C128.686 23.24 128.558 23.512 128.43 23.608C127.55 24.264 126.614 24.736 125.622 25.024C124.63 25.312 123.534 25.456 122.334 25.456L120.462 24.28C120.19 24.28 119.966 24.192 119.79 24.016C119.614 23.84 119.438 23.576 119.262 23.224C119.15 23.048 119.03 22.872 118.902 22.696C118.774 22.504 118.638 22.36 118.494 22.264C118.27 21.72 118.118 21.16 118.038 20.584C117.958 19.992 117.918 19.328 117.918 18.592L118.83 16.048C118.846 16.016 119.038 15.808 119.406 15.424C119.79 15.04 120.126 14.712 120.414 14.44C120.846 14.056 121.382 13.736 122.022 13.48C122.662 13.224 123.27 13.096 123.846 13.096C124.262 13.096 124.686 13.176 125.118 13.336C125.566 13.496 125.982 13.704 126.366 13.96ZM120.918 15.16C120.918 15.224 120.846 15.304 120.702 15.4C120.574 15.48 120.51 15.568 120.51 15.664H120.846C121.358 15.664 121.614 15.592 121.614 15.448L121.182 15.16C121.182 15.128 121.198 15.096 121.23 15.064C121.262 15.032 121.294 15.016 121.326 15.016C121.438 15.016 121.574 15.048 121.734 15.112C121.91 15.16 122.03 15.184 122.094 15.184C122.222 15.184 122.342 15.144 122.454 15.064C122.566 14.984 122.686 14.872 122.814 14.728C123.006 14.504 123.198 14.36 123.39 14.296H123.174H123.006C122.91 14.296 122.838 14.288 122.79 14.272C122.742 14.24 122.694 14.192 122.646 14.128C122.502 14.128 122.35 14.168 122.19 14.248C122.046 14.312 121.87 14.424 121.662 14.584C121.342 14.808 121.078 14.952 120.87 15.016C120.902 15.064 120.918 15.112 120.918 15.16ZM124.782 14.128C124.734 14.128 124.622 14.208 124.446 14.368C124.286 14.528 124.182 14.648 124.134 14.728L124.734 14.848C125.374 14.96 125.766 15.016 125.91 15.016C125.99 15.016 126.062 15.008 126.126 14.992C126.19 14.976 126.27 14.936 126.366 14.872C126.206 14.664 125.958 14.488 125.622 14.344C125.302 14.2 125.022 14.128 124.782 14.128ZM126.15 15.16C126.15 15.272 126.222 15.36 126.366 15.424C126.51 15.472 126.654 15.496 126.798 15.496V15.16H126.15ZM124.206 15.424C123.662 15.424 123.206 15.52 122.838 15.712C122.47 15.904 122.062 16.216 121.614 16.648C121.518 16.728 121.454 16.896 121.422 17.152C121.406 17.296 121.382 17.408 121.35 17.488C121.318 17.568 121.262 17.632 121.182 17.68C121.118 17.824 121.03 18.144 120.918 18.64C120.806 19.12 120.742 19.44 120.726 19.6C120.71 19.696 120.702 19.824 120.702 19.984C120.702 21.328 121.398 22.336 122.79 23.008L123.918 23.056C124.878 23.056 125.614 22.904 126.126 22.6C126.654 22.296 127.014 21.848 127.206 21.256C127.414 20.664 127.518 19.888 127.518 18.928C127.518 18.672 127.446 18.296 127.302 17.8C127.174 17.288 127.046 16.904 126.918 16.648C126.486 16.552 126.094 16.208 125.742 15.616C125.566 15.616 125.318 15.584 124.998 15.52C124.646 15.456 124.382 15.424 124.206 15.424ZM127.158 15.424C127.078 15.424 127.014 15.464 126.966 15.544C126.934 15.608 126.918 15.68 126.918 15.76C126.918 16 127.022 16.152 127.23 16.216C127.262 16.2 127.334 16.16 127.446 16.096C127.574 16.032 127.654 15.968 127.686 15.904C127.622 15.84 127.518 15.744 127.374 15.616C127.246 15.488 127.174 15.424 127.158 15.424ZM120.198 15.76C120.15 15.76 120.054 15.824 119.91 15.952C119.782 16.08 119.71 16.184 119.694 16.264C119.694 16.456 119.83 16.552 120.102 16.552C120.198 16.552 120.31 16.552 120.438 16.552C120.582 16.536 120.678 16.52 120.726 16.504L120.87 15.904L120.198 15.76ZM127.374 16.336V16.552C127.646 16.552 127.798 16.48 127.83 16.336H127.374ZM119.478 16.648C119.318 16.648 119.206 16.752 119.142 16.96C119.078 17.168 119.046 17.368 119.046 17.56C119.318 17.56 119.59 17.504 119.862 17.392C120.134 17.28 120.318 17.128 120.414 16.936C120.158 16.744 119.846 16.648 119.478 16.648ZM128.31 17.176C128.31 17.032 128.286 16.912 128.238 16.816C128.19 16.704 128.11 16.648 127.998 16.648C127.774 16.648 127.662 16.72 127.662 16.864C127.662 17.072 127.878 17.176 128.31 17.176ZM119.91 17.848C120.102 17.848 120.238 17.816 120.318 17.752C120.414 17.688 120.494 17.568 120.558 17.392L120.486 17.368C120.39 17.368 120.27 17.424 120.126 17.536C119.982 17.648 119.91 17.752 119.91 17.848ZM127.974 17.728C128.054 17.728 128.126 17.696 128.19 17.632C128.27 17.552 128.31 17.472 128.31 17.392H127.974V17.728ZM128.862 18.424C128.862 18.328 128.822 18.208 128.742 18.064C128.678 17.904 128.598 17.824 128.502 17.824C128.246 17.824 128.118 17.92 128.118 18.112C128.118 18.192 128.142 18.288 128.19 18.4C128.254 18.496 128.286 18.568 128.286 18.616V18.64C128.286 18.688 128.262 18.736 128.214 18.784C128.182 18.832 128.15 18.856 128.118 18.856L128.214 18.88C128.246 18.88 128.31 18.84 128.406 18.76C128.502 18.664 128.566 18.608 128.598 18.592C128.662 18.592 128.718 18.576 128.766 18.544C128.83 18.496 128.862 18.456 128.862 18.424ZM119.31 18.112C119.054 18.112 118.862 18.176 118.734 18.304C118.622 18.432 118.566 18.632 118.566 18.904C118.774 18.904 118.974 18.848 119.166 18.736C119.358 18.624 119.574 18.472 119.814 18.28C119.814 18.168 119.694 18.112 119.454 18.112C119.422 18.112 119.398 18.12 119.382 18.136C119.366 18.136 119.35 18.136 119.334 18.136C119.318 18.136 119.31 18.136 119.31 18.136C119.31 18.12 119.31 18.112 119.31 18.112ZM119.982 19.288C120.078 19.288 120.126 19.152 120.126 18.88C120.126 18.608 120.126 18.456 120.126 18.424C120.062 18.488 119.966 18.552 119.838 18.616C119.71 18.68 119.622 18.728 119.574 18.76C119.142 18.952 118.894 19.128 118.83 19.288H119.982ZM128.934 19.792C128.934 19.168 128.862 18.856 128.718 18.856L128.118 19.48C128.182 19.592 128.294 19.672 128.454 19.72C128.614 19.768 128.774 19.792 128.934 19.792ZM118.59 20.512C118.766 20.512 119.03 20.432 119.382 20.272C119.734 20.096 119.91 19.928 119.91 19.768H118.83C118.67 19.768 118.59 20.016 118.59 20.512ZM128.094 21.112C128.702 21.112 129.006 20.904 129.006 20.488C129.006 20.328 128.942 20.232 128.814 20.2C128.702 20.152 128.534 20.128 128.31 20.128C128.31 20.288 128.27 20.448 128.19 20.608C128.126 20.768 128.094 20.936 128.094 21.112ZM120.198 20.152C120.134 20.152 119.982 20.208 119.742 20.32C119.518 20.432 119.358 20.536 119.262 20.632L119.982 20.8C120.046 20.8 120.094 20.736 120.126 20.608C120.174 20.464 120.198 20.312 120.198 20.152ZM119.094 21.832C119.126 21.816 119.206 21.768 119.334 21.688C119.478 21.592 119.59 21.496 119.67 21.4C119.766 21.288 119.814 21.176 119.814 21.064L119.55 21.04C119.47 21.04 119.342 21.056 119.166 21.088C119.006 21.104 118.926 21.152 118.926 21.232L119.094 21.832ZM119.382 22.264C119.67 22.216 120.014 22.072 120.414 21.832C120.414 21.704 120.39 21.592 120.342 21.496C120.31 21.4 120.262 21.352 120.198 21.352L120.126 21.376L119.382 22.12V22.264ZM128.07 22C128.262 22 128.422 21.952 128.55 21.856C128.678 21.744 128.742 21.584 128.742 21.376H128.07C128.07 21.488 128.03 21.6 127.95 21.712C127.886 21.824 127.798 21.912 127.686 21.976L128.07 22ZM119.694 22.72C119.902 23.136 120.07 23.344 120.198 23.344C120.374 23.344 120.558 23.28 120.75 23.152C120.942 23.008 121.038 22.848 121.038 22.672C120.782 22.672 120.622 22.736 120.558 22.864V22.12L119.694 22.552V22.624V22.72ZM127.014 23.056C127.302 23.056 127.582 23.016 127.854 22.936C128.142 22.84 128.286 22.664 128.286 22.408C128.286 22.312 128.15 22.264 127.878 22.264C127.67 22.264 127.47 22.344 127.278 22.504C127.102 22.664 127.014 22.848 127.014 23.056ZM120.87 23.896C120.982 23.896 121.078 23.88 121.158 23.848C121.238 23.8 121.318 23.72 121.398 23.608V24.088C121.59 24.088 121.774 24.048 121.95 23.968C122.126 23.888 122.214 23.768 122.214 23.608C122.214 23.496 122.102 23.392 121.878 23.296C121.67 23.2 121.51 23.152 121.398 23.152H121.326L120.414 23.44C120.414 23.568 120.454 23.68 120.534 23.776C120.63 23.856 120.742 23.896 120.87 23.896ZM127.374 23.272C127.31 23.272 127.166 23.272 126.942 23.272C126.734 23.272 126.542 23.304 126.366 23.368C126.206 23.416 126.054 23.496 125.91 23.608C125.718 23.752 125.614 23.824 125.598 23.824H123.678L123.246 24.304C123.454 24.4 123.646 24.464 123.822 24.496C123.998 24.512 124.214 24.52 124.47 24.52C124.774 24.52 125.142 24.44 125.574 24.28C126.022 24.12 126.43 23.952 126.798 23.776C127.182 23.584 127.374 23.472 127.374 23.44V23.272ZM127.83 23.752H127.782C127.654 23.752 127.566 23.8 127.518 23.896L127.83 23.752ZM121.854 24.448C122.302 24.448 122.526 24.248 122.526 23.848C122.35 23.848 122.19 23.912 122.046 24.04C121.918 24.152 121.854 24.288 121.854 24.448ZM122.958 24.064C123.118 24.064 123.262 24.008 123.39 23.896L123.174 23.872H123.078C122.918 23.872 122.822 23.928 122.79 24.04L122.958 24.064ZM126.198 24.52C126.294 24.52 126.358 24.512 126.39 24.496C126.438 24.464 126.47 24.4 126.486 24.304L126.03 24.496L126.198 24.52ZM125.022 24.928L124.878 24.904C124.782 24.904 124.71 24.92 124.662 24.952C124.614 24.968 124.582 25.016 124.566 25.096L125.022 24.928ZM132.707 30.304C133.651 30.208 134.123 29.992 134.123 29.656C134.011 29.656 133.907 29.672 133.811 29.704C133.715 29.736 133.651 29.76 133.619 29.776C133.459 29.856 133.299 29.896 133.139 29.896C132.931 29.896 132.827 29.832 132.827 29.704V24.256C132.827 24.096 132.803 23.92 132.755 23.728C132.723 23.52 132.707 23.392 132.707 23.344C132.707 23.104 132.731 22.76 132.779 22.312L132.827 21.28C132.827 20.832 132.803 20.456 132.755 20.152C132.707 19.432 132.683 18.872 132.683 18.472C132.683 17.64 132.691 17.144 132.707 16.984L132.539 16.864C132.571 16.72 132.603 16.544 132.635 16.336C132.667 16.128 132.691 15.952 132.707 15.808C132.707 15.776 132.651 15.48 132.539 14.92C132.539 14.52 132.611 14.272 132.755 14.176C132.899 14.08 133.203 14.032 133.667 14.032C133.955 14.032 134.147 14.04 134.243 14.056C134.339 14.072 134.427 14.128 134.507 14.224C134.587 14.32 134.675 14.448 134.771 14.608C135.299 14.336 135.851 14.104 136.427 13.912C137.019 13.704 137.547 13.6 138.011 13.6C139.627 13.6 140.891 14.072 141.803 15.016C142.731 15.96 143.195 17.2 143.195 18.736V19.792C143.195 20.832 143.099 21.576 142.907 22.024C142.795 22.296 142.547 22.664 142.163 23.128C141.795 23.592 141.403 24 140.987 24.352C140.571 24.704 140.219 24.88 139.931 24.88C140.331 24.528 140.531 24.344 140.531 24.328C140.531 24.312 140.523 24.304 140.507 24.304C140.475 24.304 140.275 24.424 139.907 24.664L139.211 25.12C139.163 25.184 139.115 25.216 139.067 25.216C139.019 25.216 138.923 25.184 138.779 25.12C138.635 25.072 138.515 25.048 138.419 25.048C138.179 25.048 137.955 25.176 137.747 25.432C137.635 25.416 137.187 25.312 136.403 25.12C136.339 24.96 136.187 24.848 135.947 24.784C135.707 24.704 135.507 24.664 135.347 24.664C135.267 24.664 135.147 24.688 134.987 24.736C134.843 24.768 134.771 24.8 134.771 24.832V29.584C134.867 29.84 134.915 30.12 134.915 30.424C134.915 30.52 134.787 30.6 134.531 30.664C134.275 30.744 133.875 30.784 133.331 30.784C133.059 30.784 132.851 30.776 132.707 30.76V30.304ZM134.459 16.552C134.523 16.648 134.627 16.696 134.771 16.696C135.107 16.696 135.411 16.584 135.683 16.36C135.971 16.12 136.275 15.792 136.595 15.376C136.803 15.12 136.963 14.936 137.075 14.824C137.203 14.696 137.323 14.624 137.435 14.608C137.435 14.624 137.411 14.672 137.363 14.752C137.315 14.832 137.291 14.888 137.291 14.92C137.291 14.952 137.307 15.008 137.339 15.088C137.387 15.152 137.419 15.192 137.435 15.208C137.611 15.112 137.763 15.04 137.891 14.992C138.211 14.912 138.451 14.744 138.611 14.488C138.483 14.408 138.363 14.36 138.251 14.344C138.155 14.312 138.019 14.296 137.843 14.296C137.299 14.296 136.859 14.376 136.523 14.536C136.187 14.696 135.851 14.976 135.515 15.376L135.563 15.4C135.611 15.4 135.667 15.376 135.731 15.328C135.811 15.28 135.891 15.24 135.971 15.208L135.995 15.28C135.995 15.392 135.915 15.52 135.755 15.664C135.595 15.792 135.363 15.944 135.059 16.12C134.707 16.344 134.507 16.488 134.459 16.552ZM139.427 14.608C139.363 14.608 139.299 14.64 139.235 14.704C139.187 14.768 139.163 14.84 139.163 14.92H139.667C139.667 14.84 139.643 14.768 139.595 14.704C139.563 14.64 139.507 14.608 139.427 14.608ZM133.139 15.064C133.155 15.144 133.195 15.264 133.259 15.424C133.323 15.568 133.379 15.648 133.427 15.664C133.523 15.584 133.619 15.488 133.715 15.376C133.827 15.264 133.883 15.184 133.883 15.136C133.883 15.04 133.803 14.96 133.643 14.896C133.499 14.816 133.387 14.776 133.307 14.776C133.275 14.792 133.235 14.832 133.187 14.896C133.155 14.96 133.139 15.016 133.139 15.064ZM134.027 15.616C133.819 15.616 133.619 15.728 133.427 15.952H134.027V15.616ZM134.747 19.744C134.763 20.768 135.075 21.632 135.683 22.336C136.307 23.024 137.139 23.368 138.179 23.368C138.707 23.368 139.155 23.32 139.523 23.224C139.891 23.128 140.171 22.92 140.363 22.6C140.315 22.584 140.283 22.552 140.267 22.504C140.251 22.44 140.243 22.376 140.243 22.312C140.243 22.232 140.259 22.16 140.291 22.096C140.339 22.016 140.403 21.976 140.483 21.976C140.483 21.832 140.547 21.648 140.675 21.424C140.691 21.392 140.723 21.328 140.771 21.232C140.819 21.12 140.843 21.016 140.843 20.92C140.843 20.84 140.819 20.728 140.771 20.584C140.723 20.424 140.699 20.304 140.699 20.224C140.699 20.176 140.723 20.112 140.771 20.032C140.835 19.952 140.875 19.904 140.891 19.888C140.891 19.84 140.803 19.72 140.627 19.528C140.451 19.336 140.363 19.208 140.363 19.144C140.363 19.08 140.387 19 140.435 18.904C140.499 18.792 140.531 18.72 140.531 18.688C140.499 18.64 140.443 18.528 140.363 18.352C140.283 18.176 140.243 18.064 140.243 18.016V17.608C140.243 17.464 140.219 17.36 140.171 17.296C140.123 17.216 140.043 17.12 139.931 17.008C139.723 16.864 139.619 16.68 139.619 16.456C139.475 16.456 139.275 16.392 139.019 16.264C138.763 16.12 138.587 16.016 138.491 15.952L137.579 16.096V15.928C137.483 15.928 137.371 15.968 137.243 16.048C137.131 16.128 137.019 16.216 136.907 16.312C136.619 16.568 136.395 16.696 136.235 16.696C136.171 16.696 136.123 16.688 136.091 16.672L135.659 17.296H135.515C135.403 17.296 135.243 17.632 135.035 18.304C134.843 18.96 134.747 19.44 134.747 19.744ZM141.563 16.072C141.451 16.072 141.363 16.096 141.299 16.144C141.235 16.192 141.179 16.28 141.131 16.408L141.419 16.432H141.491C141.715 16.432 141.843 16.368 141.875 16.24C141.827 16.16 141.779 16.112 141.731 16.096C141.699 16.08 141.643 16.072 141.563 16.072ZM134.027 17.728C134.043 17.792 134.099 17.88 134.195 17.992C134.307 18.088 134.395 18.152 134.459 18.184C134.571 18.12 134.659 17.976 134.723 17.752C134.803 17.512 134.867 17.36 134.915 17.296H134.315L134.459 17.152L134.387 17.128C134.291 17.128 134.203 17.208 134.123 17.368C134.059 17.512 134.027 17.632 134.027 17.728ZM141.131 17.728C141.131 17.824 141.227 17.872 141.419 17.872C142.011 17.872 142.307 17.744 142.307 17.488C142.307 17.456 142.291 17.4 142.259 17.32C142.243 17.24 142.211 17.184 142.163 17.152C141.955 17.232 141.731 17.336 141.491 17.464C141.251 17.592 141.131 17.68 141.131 17.728ZM132.995 18.016C133.027 18.096 133.083 18.176 133.163 18.256C133.259 18.32 133.331 18.352 133.379 18.352C133.411 18.352 133.451 18.312 133.499 18.232C133.547 18.152 133.571 18.08 133.571 18.016H132.995ZM141.731 20.224C141.747 20.256 141.835 20.312 141.995 20.392C142.155 20.456 142.259 20.504 142.307 20.536H142.379C142.459 20.536 142.515 20.352 142.547 19.984C142.595 19.6 142.619 19.296 142.619 19.072C142.619 18.944 142.587 18.808 142.523 18.664C142.475 18.52 142.403 18.448 142.307 18.448C142.115 18.64 141.947 18.768 141.803 18.832C141.675 18.88 141.587 18.92 141.539 18.952C141.491 18.984 141.467 19.048 141.467 19.144H142.259C142.259 19.16 142.267 19.2 142.283 19.264C142.299 19.312 142.307 19.376 142.307 19.456C142.307 19.568 142.235 19.704 142.091 19.864C141.963 20.024 141.843 20.144 141.731 20.224ZM133.883 19.792H134.027V19.504L133.883 19.792ZM133.739 21.136C133.547 21.232 133.419 21.336 133.355 21.448C133.307 21.544 133.283 21.688 133.283 21.88C133.475 21.768 133.595 21.664 133.643 21.568C133.707 21.472 133.739 21.328 133.739 21.136ZM142.019 22.024C142.227 21.88 142.331 21.656 142.331 21.352L142.307 21.136C142.211 21.168 142.083 21.232 141.923 21.328C141.763 21.408 141.643 21.496 141.563 21.592L142.019 22.024ZM133.739 22.024C134.331 22.024 134.627 21.92 134.627 21.712C134.627 21.664 134.611 21.592 134.579 21.496C134.563 21.4 134.523 21.352 134.459 21.352C134.411 21.352 134.363 21.376 134.315 21.424L133.739 22.024ZM133.811 22.48C133.667 22.48 133.539 22.504 133.427 22.552C133.315 22.584 133.259 22.632 133.259 22.696L133.283 22.768C133.315 22.752 133.403 22.728 133.547 22.696C133.707 22.648 133.819 22.576 133.883 22.48H133.811ZM135.059 23.056C135.107 23.056 135.147 23.024 135.179 22.96C135.211 22.896 135.227 22.848 135.227 22.816C135.195 22.704 135.131 22.624 135.035 22.576C134.939 22.512 134.851 22.48 134.771 22.48L135.059 23.056ZM141.899 22.744C141.851 22.76 141.827 22.792 141.827 22.84C141.827 22.92 141.843 22.992 141.875 23.056L142.163 22.768L141.899 22.744ZM133.883 23.656C133.627 23.784 133.475 24.032 133.427 24.4L133.835 24.424C134.075 24.424 134.195 24.336 134.195 24.16C134.195 24.08 134.163 23.992 134.099 23.896C134.035 23.784 133.963 23.704 133.883 23.656ZM139.043 24.544C139.187 24.464 139.259 24.368 139.259 24.256H138.755L139.043 24.544ZM138.323 24.664C138.227 24.568 138.115 24.48 137.987 24.4C137.859 24.32 137.739 24.28 137.627 24.28C137.403 24.28 137.267 24.408 137.219 24.664H138.323ZM136.547 24.328C136.195 24.328 136.003 24.4 135.971 24.544H136.547V24.328ZM133.427 24.976C133.507 25.024 133.571 25.096 133.619 25.192C133.683 25.304 133.739 25.384 133.787 25.432C133.835 25.496 133.915 25.536 134.027 25.552C134.155 25.424 134.219 25.248 134.219 25.024C133.947 25.024 133.787 24.96 133.739 24.832C133.723 24.832 133.619 24.88 133.427 24.976ZM133.571 29.128C133.587 29.144 133.611 29.168 133.643 29.2C133.675 29.232 133.707 29.256 133.739 29.272C134.043 29.272 134.195 29.184 134.195 29.008C134.195 28.816 134.179 28.608 134.147 28.384C134.131 28.16 134.123 27.992 134.123 27.88C134.059 27.368 134.027 26.984 134.027 26.728C134.027 26.36 133.851 26.176 133.499 26.176C133.435 26.176 133.363 26.2 133.283 26.248C133.219 26.312 133.171 26.352 133.139 26.368H133.571C133.491 26.448 133.419 26.536 133.355 26.632C133.307 26.728 133.283 26.8 133.283 26.848C133.315 26.976 133.395 27.16 133.523 27.4C133.651 27.656 133.723 27.792 133.739 27.808L133.571 27.928V29.128ZM146.307 19.744C146.307 18.944 146.451 18.064 146.739 17.104C147.027 16.144 147.379 15.32 147.795 14.632L147.843 14.656C147.939 14.656 148.139 14.552 148.443 14.344C148.731 14.152 148.915 14.056 148.995 14.056C149.107 14.024 149.395 13.952 149.859 13.84C150.339 13.728 150.787 13.672 151.203 13.672V13.888C151.427 13.808 151.627 13.76 151.803 13.744C151.995 13.728 152.187 13.72 152.379 13.72C152.875 13.72 153.355 13.768 153.819 13.864C154.299 13.96 154.539 14.128 154.539 14.368C154.939 14.368 155.251 14.512 155.475 14.8C155.715 15.072 155.947 15.448 156.171 15.928C156.251 16.104 156.331 16.264 156.411 16.408C156.507 16.552 156.595 16.648 156.675 16.696V18.76L156.243 19.072L156.363 19.216C155.931 19.552 154.987 19.72 153.531 19.72H152.283C151.483 19.72 150.955 19.712 150.699 19.696C150.459 19.68 149.979 19.616 149.259 19.504C149.243 19.408 149.195 19.36 149.115 19.36C149.083 19.36 149.043 19.368 148.995 19.384C148.947 19.4 148.899 19.408 148.851 19.408C148.851 19.872 148.907 20.384 149.019 20.944C149.147 21.504 149.331 21.912 149.571 22.168C149.699 22.312 150.051 22.488 150.627 22.696C150.915 22.792 151.107 22.864 151.203 22.912C151.491 23.12 151.739 23.224 151.947 23.224C152.315 23.224 152.715 23.176 153.147 23.08C153.579 22.984 153.827 22.928 153.891 22.912C154.659 22.704 155.275 22.6 155.739 22.6C155.947 22.6 156.083 22.696 156.147 22.888C156.227 23.064 156.267 23.296 156.267 23.584C156.267 23.888 156.243 24.08 156.195 24.16C156.147 24.24 156.059 24.296 155.931 24.328C155.803 24.344 155.699 24.408 155.619 24.52C155.523 24.552 154.587 24.712 152.811 25C152.139 25 151.539 24.984 151.011 24.952C150.499 24.92 150.019 24.832 149.571 24.688C149.075 24.528 148.571 24.152 148.059 23.56C147.563 22.968 147.147 22.312 146.811 21.592C146.475 20.872 146.307 20.256 146.307 19.744ZM153.891 15.16C153.891 15.288 154.035 15.48 154.323 15.736C154.611 15.992 154.803 16.12 154.899 16.12C154.995 16.12 155.123 16.088 155.283 16.024C155.443 15.96 155.523 15.888 155.523 15.808C155.523 15.712 155.491 15.576 155.427 15.4C155.363 15.208 155.331 15.096 155.331 15.064C155.331 15.112 155.291 15.152 155.211 15.184C155.147 15.2 155.091 15.208 155.043 15.208C154.915 15.192 154.763 15.128 154.587 15.016C154.427 14.904 154.347 14.776 154.347 14.632C153.883 14.632 153.651 14.52 153.651 14.296C153.619 14.296 153.555 14.352 153.459 14.464C153.363 14.576 153.187 14.632 152.931 14.632C152.851 14.632 152.771 14.6 152.691 14.536C152.611 14.472 152.507 14.44 152.379 14.44L152.067 14.464C152.099 14.48 152.171 14.584 152.283 14.776C152.411 14.968 152.515 15.072 152.595 15.088C152.627 15.088 152.683 15.064 152.763 15.016C152.859 14.952 152.939 14.92 153.003 14.92C153.067 14.936 153.187 14.984 153.363 15.064C153.539 15.128 153.715 15.16 153.891 15.16ZM147.435 20.128C147.579 20.128 147.723 20.096 147.867 20.032C148.027 19.952 148.107 19.848 148.107 19.72C148.107 19.688 148.083 19.64 148.035 19.576C147.987 19.496 147.963 19.424 147.963 19.36C147.995 19.248 148.051 19.112 148.131 18.952C148.211 18.776 148.251 18.6 148.251 18.424C148.251 18.296 148.219 18.208 148.155 18.16C148.107 18.096 148.027 18.04 147.915 17.992C147.819 17.944 147.771 17.888 147.771 17.824C147.771 17.76 147.819 17.616 147.915 17.392C148.027 17.152 148.083 16.992 148.083 16.912C148.083 16.752 148.235 16.488 148.539 16.12C148.715 15.88 148.851 15.688 148.947 15.544C149.043 15.4 149.091 15.256 149.091 15.112C149.155 15.112 149.243 15.128 149.355 15.16C149.467 15.192 149.579 15.208 149.691 15.208C149.739 15.208 149.771 15.168 149.787 15.088C149.803 14.992 149.827 14.936 149.859 14.92C149.987 14.872 150.243 14.848 150.627 14.848C150.995 14.832 151.275 14.816 151.467 14.8C151.659 14.768 151.763 14.712 151.779 14.632C151.603 14.552 151.435 14.504 151.275 14.488C151.115 14.456 150.907 14.44 150.651 14.44C149.563 14.44 148.731 14.808 148.155 15.544C147.595 16.28 147.315 17.208 147.315 18.328H148.083V18.472L147.195 19.36V19.816L147.483 19.648L147.195 20.104L147.435 20.128ZM148.827 17.32C148.907 17.48 149.371 17.592 150.219 17.656C151.083 17.704 151.803 17.728 152.379 17.728C152.667 17.728 153.051 17.696 153.531 17.632C153.979 17.568 154.347 17.536 154.635 17.536C154.635 17.456 154.579 17.296 154.467 17.056C154.355 16.8 154.267 16.672 154.203 16.672L154.155 16.696C154.043 16.36 153.683 16.08 153.075 15.856C152.483 15.632 151.979 15.52 151.563 15.52C150.923 15.52 150.363 15.672 149.883 15.976C149.403 16.28 149.051 16.728 148.827 17.32ZM155.523 17.824C155.523 18.064 155.443 18.224 155.283 18.304C155.123 18.368 154.891 18.4 154.587 18.4C154.331 18.416 154.139 18.448 154.011 18.496C153.883 18.544 153.819 18.648 153.819 18.808C154.347 18.808 154.763 18.792 155.067 18.76C155.371 18.728 155.555 18.632 155.619 18.472C155.699 18.6 155.811 18.664 155.955 18.664C155.955 18.536 155.923 18.4 155.859 18.256C155.811 18.096 155.787 17.976 155.787 17.896C155.787 17.832 155.819 17.776 155.883 17.728C155.963 17.68 156.019 17.624 156.051 17.56C156.099 17.496 156.123 17.368 156.123 17.176C156.123 16.552 155.939 16.24 155.571 16.24C155.411 16.24 155.307 16.288 155.259 16.384C155.227 16.464 155.211 16.624 155.211 16.864C155.387 17.392 155.491 17.68 155.523 17.728V17.824ZM149.019 18.112C148.875 18.112 148.747 18.168 148.635 18.28C148.539 18.392 148.491 18.52 148.491 18.664C148.699 18.664 148.835 18.624 148.899 18.544C148.979 18.464 149.019 18.32 149.019 18.112ZM149.475 18.328C149.443 18.328 149.347 18.4 149.187 18.544C149.043 18.688 148.923 18.816 148.827 18.928L149.331 18.832C149.363 18.832 149.467 18.816 149.643 18.784C149.835 18.736 150.059 18.632 150.315 18.472C150.267 18.456 150.019 18.408 149.571 18.328H149.475ZM150.315 18.76C150.635 18.872 150.915 18.928 151.155 18.928C151.299 18.928 151.419 18.88 151.515 18.784C151.627 18.688 151.683 18.568 151.683 18.424C150.883 18.424 150.427 18.536 150.315 18.76ZM152.595 18.616C152.371 18.616 152.147 18.648 151.923 18.712C151.715 18.76 151.611 18.856 151.611 19L151.635 19.072C151.667 19.072 151.947 19.056 152.475 19.024C153.019 18.976 153.331 18.84 153.411 18.616H152.739H152.595ZM147.987 20.344C147.683 20.344 147.491 20.392 147.411 20.488C147.331 20.568 147.291 20.768 147.291 21.088C147.483 21.088 147.643 21.016 147.771 20.872C147.915 20.712 147.987 20.536 147.987 20.344ZM148.083 20.68C148.051 20.728 147.963 20.856 147.819 21.064C147.691 21.256 147.627 21.448 147.627 21.64C148.091 21.64 148.395 21.576 148.539 21.448C148.491 21.336 148.411 21.208 148.299 21.064C148.187 20.904 148.115 20.776 148.083 20.68ZM147.795 22.024C147.875 22.072 147.939 22.168 147.987 22.312C148.035 22.44 148.067 22.544 148.083 22.624C148.451 22.432 148.635 22.128 148.635 21.712C148.187 21.712 147.907 21.816 147.795 22.024ZM148.995 23.368C149.187 23.08 149.283 22.896 149.283 22.816L149.259 22.744L148.395 22.624L148.227 22.744L148.995 23.368ZM149.259 23.512C149.275 23.544 149.299 23.576 149.331 23.608C149.363 23.624 149.395 23.64 149.427 23.656C149.571 23.624 149.731 23.552 149.907 23.44C150.083 23.328 150.171 23.248 150.171 23.2C150.171 23.12 150.139 23.056 150.075 23.008C150.027 22.944 149.987 22.912 149.955 22.912C149.811 22.912 149.659 22.984 149.499 23.128C149.339 23.256 149.259 23.384 149.259 23.512ZM149.859 23.944C150.211 24.024 150.411 24.08 150.459 24.112C150.539 24.192 150.587 24.232 150.603 24.232C150.843 24.232 151.051 24.16 151.227 24.016C151.419 23.856 151.515 23.664 151.515 23.44C150.907 23.44 150.603 23.512 150.603 23.656C150.603 23.608 150.571 23.544 150.507 23.464C150.459 23.384 150.419 23.344 150.387 23.344C150.355 23.344 150.251 23.424 150.075 23.584C149.915 23.728 149.835 23.824 149.835 23.872L149.859 23.944ZM151.491 24.112C151.571 24.192 151.619 24.232 151.635 24.232C151.907 24.232 152.227 24.2 152.595 24.136C152.963 24.072 153.195 24.032 153.291 24.016C153.963 23.888 154.403 23.824 154.611 23.824L154.899 23.944C155.091 23.944 155.267 23.904 155.427 23.824C155.587 23.744 155.667 23.616 155.667 23.44C155.347 23.44 154.915 23.504 154.371 23.632C154.291 23.648 154.155 23.68 153.963 23.728C153.771 23.776 153.587 23.808 153.411 23.824C153.091 23.824 152.747 23.84 152.379 23.872C152.027 23.888 151.779 23.912 151.635 23.944L151.491 24.112ZM161.19 13.696C161.382 13.696 161.478 13.76 161.478 13.888C161.478 13.936 161.438 14.08 161.358 14.32C161.294 14.56 161.254 14.728 161.238 14.824L161.79 14.272C162.414 13.872 162.998 13.544 163.542 13.288C164.086 13.032 164.622 12.904 165.15 12.904C165.198 12.968 165.222 13.16 165.222 13.48C165.222 13.64 165.206 13.896 165.174 14.248C165.142 14.632 165.126 14.936 165.126 15.16C165.126 15.256 165.142 15.384 165.174 15.544C165.174 15.576 165.11 15.616 164.982 15.664C164.854 15.696 164.758 15.72 164.694 15.736C163.926 15.96 163.27 16.224 162.726 16.528C162.182 16.832 161.87 17.264 161.79 17.824L161.694 18.352C161.534 19.232 161.454 19.776 161.454 19.984C161.454 20.48 161.51 21.08 161.622 21.784C161.638 21.896 161.67 22.16 161.718 22.576C161.766 22.976 161.79 23.352 161.79 23.704C161.79 23.8 161.774 23.952 161.742 24.16C161.71 24.368 161.678 24.568 161.646 24.76L161.79 24.928C161.774 25.024 161.566 25.096 161.166 25.144C160.766 25.208 160.478 25.24 160.302 25.24H160.23C160.166 25.24 160.118 25.224 160.086 25.192C160.054 25.176 160.03 25.136 160.014 25.072C159.966 25.184 159.87 25.264 159.726 25.312C159.598 25.36 159.47 25.384 159.342 25.384C159.262 25.368 159.166 25.344 159.054 25.312C158.958 25.296 158.886 25.272 158.838 25.24L158.67 23.728V13.696H161.19ZM163.542 14.344C163.798 14.344 163.926 14.52 163.926 14.872C163.926 14.984 163.918 15.088 163.902 15.184C163.886 15.264 163.878 15.344 163.878 15.424C164.102 15.344 164.278 15.208 164.406 15.016C164.55 14.824 164.622 14.6 164.622 14.344C164.622 14.216 164.51 14.072 164.286 13.912C164.062 13.736 163.95 13.616 163.95 13.552C163.95 13.536 163.966 13.512 163.998 13.48C163.79 13.688 163.686 13.8 163.686 13.816L163.71 13.936C163.598 14.048 163.43 14.152 163.206 14.248C162.982 14.344 162.814 14.448 162.702 14.56C162.59 14.672 162.534 14.856 162.534 15.112C162.63 15.096 162.718 15.048 162.798 14.968C162.894 14.872 162.974 14.784 163.038 14.704C163.214 14.464 163.382 14.344 163.542 14.344ZM160.542 14.944C160.542 15.344 160.262 15.864 159.702 16.504C159.926 16.424 160.158 16.32 160.398 16.192C160.638 16.048 160.758 15.944 160.758 15.88V14.416C160.614 14.384 160.39 14.352 160.086 14.32C159.782 14.288 159.558 14.264 159.414 14.248V14.728H159.51C159.51 14.84 159.486 14.952 159.438 15.064C159.406 15.176 159.39 15.28 159.39 15.376C159.662 15.376 159.918 15.256 160.158 15.016L159.414 15.76V16.072C159.446 16.04 159.622 15.848 159.942 15.496C160.278 15.128 160.478 14.944 160.542 14.944ZM159.702 19.312C159.894 19.296 160.126 19.24 160.398 19.144C160.67 19.032 160.838 18.944 160.902 18.88C160.966 18.576 161.006 18.376 161.022 18.28C161.214 17.448 161.374 16.816 161.502 16.384C161.63 15.952 161.83 15.496 162.102 15.016C161.67 15.368 161.222 15.808 160.758 16.336C160.31 16.864 159.958 17.36 159.702 17.824H159.798L160.902 17.536V17.656L159.702 19.144V19.312ZM162.462 15.952C162.638 15.952 162.782 15.904 162.894 15.808C163.006 15.696 163.062 15.56 163.062 15.4L163.038 15.184L162.318 15.928L162.462 15.952ZM160.014 16.792C159.758 16.792 159.59 16.84 159.51 16.936C159.43 17.032 159.39 17.184 159.39 17.392L159.414 17.656L160.014 16.792ZM159.87 18.256C159.502 18.256 159.318 18.464 159.318 18.88H159.558L160.014 18.256H159.87ZM160.374 19.456C160.134 19.488 159.91 19.536 159.702 19.6C159.51 19.664 159.414 19.712 159.414 19.744V20.656L160.446 19.456H160.374ZM159.558 21.088C159.622 21.168 159.702 21.208 159.798 21.208C160.07 21.208 160.318 21.12 160.542 20.944C160.782 20.768 160.902 20.552 160.902 20.296V20.128C160.902 19.888 160.854 19.712 160.758 19.6C160.694 19.696 160.518 19.904 160.23 20.224C159.958 20.544 159.734 20.832 159.558 21.088ZM159.27 22.12C159.27 22.136 159.318 22.288 159.414 22.576C159.494 22.496 159.63 22.368 159.822 22.192C160.014 22 160.166 21.84 160.278 21.712C160.39 21.568 160.446 21.456 160.446 21.376L160.326 21.352C160.038 21.352 159.79 21.416 159.582 21.544C159.374 21.656 159.27 21.848 159.27 22.12ZM160.902 21.376C160.886 21.408 160.726 21.616 160.422 22C160.198 22.24 160.014 22.48 159.87 22.72C160.334 22.72 160.646 22.672 160.806 22.576C160.966 22.464 161.046 22.208 161.046 21.808C161.046 21.616 160.998 21.472 160.902 21.376ZM159.414 23.464C159.414 23.544 159.43 23.648 159.462 23.776C159.494 23.888 159.526 23.984 159.558 24.064C159.782 23.952 159.99 23.784 160.182 23.56C160.374 23.336 160.51 23.104 160.59 22.864C160.51 22.912 160.43 22.952 160.35 22.984C160.27 23 160.198 23.024 160.134 23.056C159.654 23.248 159.414 23.384 159.414 23.464ZM161.046 22.984C160.678 23.336 160.382 23.696 160.158 24.064H160.326C160.406 24.064 160.566 24.016 160.806 23.92C161.062 23.824 161.19 23.76 161.19 23.728L161.046 22.984ZM161.19 24.16C160.966 24.16 160.726 24.2 160.47 24.28C160.23 24.36 160.078 24.48 160.014 24.64H160.326C160.902 24.64 161.19 24.544 161.19 24.352V24.16Z" fill="black"/>
<path d="M68.7519 34.264C68.7999 34.264 68.864 34.304 68.944 34.384C69.04 34.448 69.0879 34.504 69.0879 34.552V36.328L68.9199 36.472C68.8079 36.472 68.4239 36.472 67.7679 36.472C67.1279 36.472 66.528 36.52 65.968 36.616L65.9919 36.784C65.9919 36.992 65.9359 37.248 65.8239 37.552C65.7279 37.872 65.68 38.104 65.68 38.248C65.68 38.28 65.6959 38.32 65.7279 38.368C65.7759 38.4 65.8079 38.416 65.8239 38.416V40.912C65.9359 41.024 65.9919 41.272 65.9919 41.656L65.968 42.256C66.048 42.272 66.0959 42.464 66.1119 42.832C66.1279 43.184 66.248 43.504 66.472 43.792C66.712 44.08 67.184 44.256 67.888 44.32C67.936 44.32 68.0479 44.336 68.2239 44.368C68.3999 44.384 68.536 44.44 68.632 44.536C68.728 44.616 68.776 44.744 68.776 44.92C68.776 45.208 68.752 45.424 68.704 45.568C68.656 45.712 68.568 45.888 68.44 46.096L68.1999 46.528C67.9279 46.512 67.624 46.456 67.288 46.36C66.952 46.264 66.632 46.168 66.328 46.072C65.56 45.816 65.0079 45.68 64.6719 45.664C64.3519 45.664 64.136 45.32 64.024 44.632C63.928 43.928 63.88 43.256 63.88 42.616C63.88 42.168 63.92 41.744 64 41.344C64.016 41.232 64.0319 41.104 64.0479 40.96C64.0639 40.816 64.0719 40.656 64.0719 40.48C64.0719 39.712 63.9679 38.424 63.7599 36.616C63.6159 36.6 63.4719 36.576 63.3279 36.544C63.1999 36.512 63.088 36.488 62.992 36.472C62.576 36.36 62.28 36.304 62.104 36.304C62.024 36.304 61.928 36.192 61.816 35.968C61.704 35.728 61.6479 35.536 61.6479 35.392C61.6479 35.072 61.7519 34.864 61.9599 34.768C62.1679 34.672 62.4639 34.616 62.8479 34.6C63.0559 34.6 63.208 34.592 63.304 34.576C63.4 34.544 63.456 34.488 63.472 34.408C63.472 34.04 63.4959 33.648 63.5439 33.232C63.6079 32.816 63.6799 32.568 63.7599 32.488C63.9679 32.568 64.0719 32.944 64.0719 33.616L64.0479 34.264L64.192 34.408C64.224 34.392 64.408 34.304 64.744 34.144C65.08 33.984 65.248 33.84 65.248 33.712L65.2239 33.52C65.2239 33.472 65.2479 33.296 65.2959 32.992C65.3439 32.688 65.3679 32.464 65.3679 32.32H65.32C65.24 32.32 65.04 32.4 64.72 32.56C64.4 32.704 64.224 32.776 64.192 32.776C64.272 32.696 64.472 32.544 64.792 32.32C64.472 32.256 64.2239 32.16 64.0479 32.032C64.1919 31.92 64.336 31.848 64.48 31.816C64.64 31.768 64.832 31.736 65.056 31.72C65.344 31.72 65.5999 31.68 65.8239 31.6C65.8239 31.664 65.872 31.744 65.968 31.84C66.064 31.92 66.1119 31.984 66.1119 32.032C66.0959 32.096 66.072 32.192 66.04 32.32C66.008 32.432 65.984 32.536 65.968 32.632C65.968 33.176 66.024 33.576 66.136 33.832C66.248 34.088 66.4159 34.248 66.6399 34.312C66.8799 34.376 67.248 34.408 67.744 34.408C67.856 34.408 68.0159 34.384 68.2239 34.336C68.4319 34.288 68.6079 34.264 68.7519 34.264ZM65.968 34.984C65.856 34.936 65.704 34.8 65.512 34.576C65.496 34.56 65.44 34.504 65.344 34.408C65.264 34.296 65.1839 34.24 65.1039 34.24C64.8799 34.24 64.7679 34.344 64.7679 34.552H64.9359C64.8079 34.76 64.568 34.92 64.216 35.032C63.864 35.144 63.44 35.24 62.944 35.32C62.768 35.352 62.608 35.384 62.464 35.416C62.336 35.448 62.2719 35.48 62.2719 35.512C62.2719 35.608 62.4479 35.696 62.7999 35.776C63.1679 35.856 63.4319 35.896 63.5919 35.896L64.9359 34.84H65.248L64.48 35.584V35.728L65.968 34.984ZM66.7119 34.984C66.5839 34.984 66.4719 35.024 66.3759 35.104C66.2959 35.168 66.2079 35.28 66.1119 35.44C66.1919 35.424 66.32 35.368 66.496 35.272C66.688 35.16 66.808 35.064 66.856 34.984H66.7119ZM68.4879 35.152L67.7679 35.128L67.024 35.152C66.896 35.168 66.712 35.256 66.472 35.416C66.232 35.56 66.1119 35.664 66.1119 35.728V35.92C66.1919 35.92 66.344 35.856 66.568 35.728C66.792 35.6 66.944 35.504 67.024 35.44L66.7119 35.896C66.9039 35.896 67.176 35.864 67.528 35.8C67.624 35.784 67.7359 35.768 67.8639 35.752C67.9919 35.736 68.144 35.728 68.32 35.728L68.4879 35.152ZM65.3679 35.728V35.584C65.2879 35.632 65.2079 35.68 65.1279 35.728C65.0639 35.76 64.9999 35.8 64.9359 35.848C64.4239 36.104 64.1679 36.312 64.1679 36.472H64.48L65.3679 35.728ZM65.08 36.616C64.888 36.616 64.712 36.704 64.552 36.88C64.408 37.04 64.3359 37.192 64.3359 37.336V37.456C64.3359 37.68 64.384 37.8 64.48 37.816C64.656 37.688 64.8 37.536 64.912 37.36C65.04 37.168 65.1039 36.976 65.1039 36.784L65.08 36.616ZM65.8479 44.104C65.8479 43.96 65.792 43.888 65.68 43.888L65.4639 43.912L65.536 43C65.504 42.728 65.4559 42.448 65.3919 42.16C65.3279 41.856 65.28 41.64 65.248 41.512L65.08 41.368L65.248 41.224L65.272 40.672C65.272 40.304 65.24 39.8 65.176 39.16C65.096 38.6 65.056 38.08 65.056 37.6C64.864 37.6 64.72 37.72 64.624 37.96C64.528 38.184 64.48 38.408 64.48 38.632C64.48 38.856 64.504 38.992 64.552 39.04C64.6 39.072 64.624 39.104 64.624 39.136C64.624 39.2 64.592 39.272 64.528 39.352C64.48 39.432 64.456 39.544 64.456 39.688C64.456 40.024 64.5359 40.192 64.6959 40.192H64.744C64.68 40.256 64.616 40.4 64.552 40.624C64.504 40.848 64.48 41.048 64.48 41.224C64.592 41.224 64.648 41.264 64.648 41.344C64.648 41.408 64.592 41.52 64.48 41.68C64.368 41.824 64.3119 41.904 64.3119 41.92C64.3119 42.112 64.3519 42.288 64.4319 42.448C64.5119 42.608 64.552 42.72 64.552 42.784C64.552 42.912 64.4799 43.08 64.3359 43.288C64.3519 43.336 64.392 43.424 64.456 43.552C64.52 43.664 64.576 43.72 64.624 43.72C64.72 43.72 64.8319 43.704 64.9599 43.672C65.1039 43.64 65.2 43.608 65.248 43.576C65.184 43.672 65.0559 43.768 64.8639 43.864C64.6879 43.96 64.56 44.016 64.48 44.032C64.48 44.784 64.944 45.16 65.872 45.16C65.872 45.496 65.992 45.664 66.232 45.664C66.312 45.664 66.4 45.64 66.496 45.592C66.592 45.528 66.6639 45.448 66.7119 45.352C66.7439 45.352 66.7679 45.368 66.7839 45.4C66.7999 45.416 66.824 45.424 66.856 45.424V45.688C67.24 45.688 67.584 45.48 67.888 45.064C67.856 44.872 67.512 44.776 66.856 44.776C66.792 44.776 66.7119 44.792 66.6159 44.824C66.5359 44.856 66.464 44.888 66.4 44.92C66.416 44.904 66.424 44.872 66.424 44.824C66.424 44.728 66.336 44.648 66.16 44.584C65.984 44.504 65.8479 44.464 65.7519 44.464C65.6559 44.464 65.52 44.488 65.344 44.536C65.184 44.584 65.0479 44.608 64.9359 44.608C64.9679 44.544 65.104 44.464 65.344 44.368C65.584 44.256 65.7439 44.184 65.8239 44.152L65.8479 44.104ZM68.1039 45.808C68.1039 45.552 68.032 45.4 67.888 45.352C67.808 45.4 67.728 45.472 67.648 45.568C67.584 45.648 67.552 45.728 67.552 45.808H68.1039ZM80.5599 35.2C80.6399 35.2 80.7599 36.688 80.9199 39.664C81.0799 42.624 81.16 44.592 81.16 45.568C81.08 45.856 80.888 46.04 80.584 46.12C80.28 46.2 79.88 46.24 79.384 46.24C79.048 46.24 78.8239 46.184 78.7119 46.072C78.5999 45.96 78.5439 45.744 78.5439 45.424L78.568 44.728C78.504 44.776 78.3439 44.952 78.0879 45.256C77.8319 45.544 77.464 45.792 76.984 46C76.504 46.192 75.8479 46.288 75.0159 46.288C73.8479 46.288 72.952 45.8 72.328 44.824C71.704 43.832 71.344 42.648 71.248 41.272L71.08 39.496V39.184C71.272 38.224 71.3679 37.688 71.3679 37.576C71.3679 37.384 71.3439 37.096 71.2959 36.712L71.248 35.944V35.704C71.248 35.464 71.2879 35.224 71.3679 34.984C71.4639 34.728 71.6159 34.6 71.8239 34.6L73.3119 34.768C73.4239 34.768 73.504 34.936 73.552 35.272C73.616 35.592 73.648 35.904 73.648 36.208C73.648 36.56 73.6319 36.912 73.5999 37.264L73.744 37.408L73.72 40.144C73.72 41.104 73.784 41.848 73.912 42.376C74.04 42.904 74.296 43.304 74.68 43.576C75.064 43.832 75.6479 43.96 76.4319 43.96C77.0399 43.96 77.528 43.904 77.896 43.792C78.264 43.68 78.5599 43.432 78.7839 43.048L78.8079 42.184C78.8079 41.608 78.7759 40.744 78.7119 39.592C78.6319 38.632 78.592 37.76 78.592 36.976C78.592 36.672 78.592 36.36 78.592 36.04C78.608 35.704 78.6239 35.472 78.6399 35.344L78.9039 35.2H80.5599ZM71.968 37.6C71.968 37.76 72.0159 37.848 72.1119 37.864C72.1599 37.72 72.2399 37.592 72.3519 37.48C72.4799 37.352 72.552 37.28 72.568 37.264C72.728 37.104 72.8399 36.976 72.9039 36.88C72.9839 36.768 73.024 36.632 73.024 36.472C73.024 36.152 72.9839 35.992 72.9039 35.992C72.8239 35.976 72.7839 35.952 72.7839 35.92C72.7839 35.856 72.8159 35.736 72.8799 35.56C72.8799 35.4 72.576 35.32 71.968 35.32V36.232L72.0879 36.784C72.0879 36.848 72.0639 36.952 72.0159 37.096C71.9839 37.224 71.968 37.352 71.968 37.48V37.6ZM79.2399 36.904C79.5119 36.968 79.648 37.032 79.648 37.096C79.648 37.128 79.5759 37.216 79.4319 37.36C79.3039 37.504 79.2399 37.648 79.2399 37.792C79.2399 37.824 79.248 37.872 79.264 37.936C79.296 37.984 79.336 38.008 79.384 38.008C79.736 37.8 79.944 37.608 80.008 37.432C80.088 37.24 80.1279 36.872 80.1279 36.328C80.1279 36.152 80.104 36.016 80.056 35.92C80.008 35.824 79.904 35.776 79.744 35.776L79.384 35.8L79.2399 36.904ZM72.2799 38.008C72.6159 38.008 72.832 37.984 72.928 37.936C73.04 37.888 73.096 37.744 73.096 37.504C73.096 37.44 73.064 37.312 73 37.12C72.568 37.488 72.3279 37.784 72.2799 38.008ZM79.6719 38.728C79.5919 38.728 79.496 38.76 79.384 38.824C79.272 38.888 79.216 38.936 79.216 38.968C79.216 39.048 79.24 39.136 79.288 39.232C79.336 39.328 79.392 39.376 79.456 39.376C79.648 39.376 79.832 39.2 80.008 38.848C80.184 38.496 80.272 38.216 80.272 38.008C80.272 37.96 80.2479 37.904 80.1999 37.84C80.1679 37.776 80.1359 37.744 80.1039 37.744L79.384 38.464L79.36 38.512C79.36 38.576 79.392 38.632 79.456 38.68C79.52 38.712 79.5919 38.728 79.6719 38.728ZM72.8799 38.176C72.5759 38.176 72.352 38.192 72.208 38.224C72.08 38.256 71.9839 38.344 71.9199 38.488C71.8559 38.632 71.8239 38.864 71.8239 39.184C72.0799 39.008 72.3199 38.824 72.5439 38.632C72.7679 38.424 72.8799 38.272 72.8799 38.176ZM73.1679 38.584C73.1679 38.552 73.1599 38.536 73.1439 38.536C73.0639 38.536 72.8079 38.704 72.3759 39.04C72.1679 39.216 72.032 39.32 71.968 39.352V39.496L72.8079 39.616C72.8559 39.6 72.9119 39.576 72.9759 39.544C73.0559 39.496 73.1199 39.472 73.1679 39.472V38.584ZM79.5039 40C79.5039 40.032 79.5279 40.104 79.5759 40.216C79.6399 40.312 79.7279 40.36 79.8399 40.36C79.6159 40.36 79.4799 40.464 79.4319 40.672C79.3839 40.88 79.36 41.144 79.36 41.464C79.6 41.464 79.7999 41.368 79.9599 41.176C80.1359 40.984 80.2239 40.768 80.2239 40.528H79.9599C80.0879 40.432 80.16 40.272 80.176 40.048C80.192 39.808 80.1999 39.528 80.1999 39.208C79.9919 39.208 79.8239 39.288 79.6959 39.448C79.5679 39.608 79.5039 39.792 79.5039 40ZM71.776 39.928C71.776 40.52 71.84 40.816 71.968 40.816L72.736 40.096V39.928H71.776ZM73.1679 40.096C72.7519 40.464 72.3039 40.952 71.8239 41.56H73.1679C73.1839 41.56 73.2079 41.512 73.2399 41.416C73.2879 41.304 73.3119 41.208 73.3119 41.128C73.3119 40.936 73.2879 40.76 73.2399 40.6C73.2239 40.536 73.208 40.464 73.192 40.384C73.176 40.304 73.1679 40.208 73.1679 40.096ZM79.648 42.04C79.936 42.04 80.1199 42.008 80.1999 41.944C80.2799 41.864 80.32 41.672 80.32 41.368C80.16 41.368 80.0079 41.44 79.8639 41.584C79.7199 41.712 79.648 41.864 79.648 42.04ZM71.968 42.28C71.968 42.552 71.9839 42.752 72.0159 42.88C72.0639 43.008 72.1839 43.072 72.3759 43.072C72.6319 43.072 72.872 43.024 73.096 42.928C73.336 42.816 73.456 42.656 73.456 42.448C73.456 42.352 73.4399 42.28 73.4079 42.232C73.3759 42.184 73.2959 42.16 73.1679 42.16C73.1199 42.176 73.0239 42.272 72.8799 42.448C72.7359 42.624 72.632 42.776 72.568 42.904L72.2799 42.76C72.6159 42.376 72.808 42.08 72.856 41.872C72.744 41.888 72.6 41.896 72.424 41.896C72.264 41.896 72.144 41.92 72.064 41.968C72 42.016 71.968 42.12 71.968 42.28ZM79.6719 42.304C79.5599 42.304 79.5039 42.4 79.5039 42.592V42.76C79.5039 42.936 79.5599 43.032 79.6719 43.048C79.9759 42.744 80.1279 42.576 80.1279 42.544C80.1279 42.496 80.0719 42.448 79.9599 42.4C79.8479 42.336 79.7519 42.304 79.6719 42.304ZM80.2959 43.792C80.3759 43.792 80.416 43.688 80.416 43.48C80.4 43.4 80.368 43.304 80.32 43.192C80.272 43.08 80.2399 43.024 80.2239 43.024C80.0959 43.024 79.9759 43.08 79.8639 43.192C79.7519 43.304 79.6879 43.36 79.6719 43.36C79.6719 43.424 79.688 43.488 79.72 43.552C79.752 43.6 79.7919 43.632 79.8399 43.648C79.6959 43.872 79.5199 44.056 79.3119 44.2C79.1199 44.344 78.9839 44.416 78.9039 44.416C78.9039 44.512 78.9279 44.576 78.9759 44.608C79.0239 44.64 79.0559 44.664 79.0719 44.68L79.9599 44.08V43.696C80.0239 43.696 80.088 43.712 80.152 43.744C80.216 43.776 80.2639 43.792 80.2959 43.792ZM73 44.824C73.384 44.936 73.632 45.032 73.744 45.112L74.632 44.68V44.536H74.344V44.224H73V44.056L73.3119 44.08C73.6959 44.08 73.888 43.984 73.888 43.792C73.888 43.744 73.8719 43.688 73.8399 43.624C73.8079 43.56 73.776 43.512 73.744 43.48L73.3119 43.792C73.3119 43.696 73.336 43.576 73.384 43.432C73.432 43.288 73.456 43.16 73.456 43.048C73.408 43.08 73.264 43.128 73.024 43.192C72.784 43.24 72.5919 43.296 72.4479 43.36C72.3199 43.424 72.2559 43.52 72.2559 43.648L72.2799 43.792L73 44.824ZM79.792 44.992C80.208 44.992 80.416 44.872 80.416 44.632C80.416 44.488 80.3999 44.384 80.3679 44.32C80.3519 44.24 80.3039 44.2 80.2239 44.2C80.0479 44.2 79.8639 44.288 79.6719 44.464C79.4959 44.64 79.4 44.808 79.384 44.968L79.792 44.992ZM78.3519 44.536L78.04 44.512C77.864 44.512 77.728 44.52 77.632 44.536C77.536 44.552 77.4239 44.6 77.2959 44.68H75.0879C75.0239 44.68 74.864 44.76 74.608 44.92C74.368 45.064 74.184 45.184 74.056 45.28C74.296 45.472 74.7599 45.568 75.4479 45.568C75.5919 45.568 75.7119 45.552 75.8079 45.52C75.9039 45.488 76.008 45.408 76.12 45.28V45.616C76.584 45.616 76.9199 45.568 77.1279 45.472C77.3519 45.376 77.5599 45.16 77.7519 44.824L77.9199 44.968L78.3519 44.536ZM80.272 45.4V45.28L79.264 45.448L79.48 45.664L80.272 45.4ZM88.9698 44.56C89.2898 44.672 89.4497 44.776 89.4497 44.872C89.4497 44.968 89.3218 45.328 89.0658 45.952C88.9218 46.24 88.8498 46.408 88.8498 46.456L88.5378 46.576V46.384C88.3458 46.384 88.1698 46.392 88.0098 46.408C87.8498 46.424 87.6978 46.432 87.5538 46.432C87.3298 46.432 87.1538 46.384 87.0258 46.288C86.9138 46.208 86.8578 46.032 86.8578 45.76C86.4418 45.76 86.1297 45.608 85.9217 45.304C85.7137 45 85.4978 44.544 85.2738 43.936C85.1618 42.496 85.0817 41.024 85.0337 39.52C85.0017 38 84.9858 36.216 84.9858 34.168V32.632C84.9858 31.24 85.0418 30.072 85.1538 29.128C85.4258 28.984 85.7697 28.888 86.1857 28.84C86.2497 28.824 86.3937 28.8 86.6177 28.768C86.8417 28.72 87.0417 28.648 87.2177 28.552L87.2898 28.528C87.4338 28.528 87.5057 28.616 87.5057 28.792C87.5057 30.072 87.4578 32.008 87.3618 34.6C87.2978 35.864 87.2497 37.152 87.2177 38.464C87.2177 38.816 87.1857 39.296 87.1216 39.904C87.1057 40.032 87.0897 40.2 87.0737 40.408C87.0577 40.616 87.0497 40.864 87.0497 41.152C87.0497 42.192 87.1778 43.024 87.4338 43.648C87.6898 44.256 88.2018 44.56 88.9698 44.56ZM86.6418 29.608C86.2258 29.608 85.9537 29.712 85.8257 29.92C85.6977 30.112 85.6337 30.44 85.6337 30.904H85.9698C85.9698 30.936 85.9777 30.96 85.9937 30.976C86.0097 30.992 86.0177 31.008 86.0177 31.024C86.0177 31.056 85.9777 31.096 85.8977 31.144C85.8337 31.176 85.7777 31.192 85.7297 31.192V32.08C85.7777 32.016 85.8737 31.888 86.0177 31.696C86.1777 31.488 86.2818 31.376 86.3298 31.36C86.3138 31.408 86.2818 31.512 86.2338 31.672C86.1858 31.816 86.1137 31.952 86.0177 32.08C86.0337 32.08 86.0658 32.088 86.1138 32.104C86.1618 32.104 86.2177 32.104 86.2817 32.104C86.5217 32.104 86.6418 32.056 86.6418 31.96V29.608ZM85.7297 37C85.7777 37.08 85.9297 37.12 86.1857 37.12C86.1377 37.184 86.0737 37.24 85.9937 37.288C85.9137 37.32 85.8498 37.36 85.8018 37.408C85.7538 37.456 85.7297 37.528 85.7297 37.624C85.7297 37.752 85.7617 37.88 85.8257 38.008C85.8897 38.136 85.9217 38.288 85.9217 38.464H86.4738V37.696H86.1857C86.3777 37.44 86.4738 37.08 86.4738 36.616C86.4738 36.52 86.4498 36.392 86.4018 36.232C86.3538 36.072 86.3298 35.944 86.3298 35.848L86.4738 35.248C86.5858 34.88 86.6418 34.512 86.6418 34.144C86.6258 34.096 86.6018 34.048 86.5698 34C86.5378 33.936 86.5058 33.888 86.4738 33.856C86.4738 34.08 86.3777 34.192 86.1857 34.192L86.0177 34.144C86.1297 34.096 86.2018 34.024 86.2338 33.928C86.2658 33.832 86.2817 33.712 86.2817 33.568H86.6418V32.68C86.5458 32.792 86.4098 32.928 86.2338 33.088C86.0738 33.232 85.9778 33.304 85.9458 33.304L85.8738 33.28C86.1778 32.944 86.3778 32.648 86.4738 32.392C86.2978 32.392 86.1057 32.416 85.8977 32.464C85.6897 32.496 85.5858 32.584 85.5858 32.728C85.5858 33.096 85.6337 33.352 85.7297 33.496C85.8257 33.64 85.8738 33.72 85.8738 33.736C85.8738 33.768 85.8257 33.896 85.7297 34.12C85.6337 34.328 85.5858 34.488 85.5858 34.6C85.6178 34.584 85.6578 34.56 85.7058 34.528C85.7698 34.48 85.8258 34.456 85.8738 34.456C85.9058 34.456 85.9378 34.48 85.9698 34.528C86.0018 34.56 86.0177 34.584 86.0177 34.6C85.9697 34.648 85.9138 34.728 85.8498 34.84C85.7858 34.952 85.7457 35.04 85.7297 35.104C85.7297 35.2 85.7698 35.264 85.8498 35.296C85.9458 35.312 86.0017 35.328 86.0177 35.344C85.8417 35.392 85.7298 35.52 85.6818 35.728C85.6498 35.936 85.6337 36.168 85.6337 36.424C85.7617 36.424 85.8658 36.392 85.9458 36.328C86.0258 36.248 86.0818 36.208 86.1138 36.208L86.1857 36.232C86.1377 36.36 86.0578 36.504 85.9458 36.664C85.8498 36.824 85.7777 36.936 85.7297 37ZM86.4978 38.728C86.2738 38.728 86.1137 38.792 86.0177 38.92C85.9217 39.048 85.8738 39.24 85.8738 39.496C85.9058 39.464 85.9858 39.408 86.1138 39.328C86.2578 39.248 86.3538 39.16 86.4018 39.064C86.4658 38.968 86.4978 38.856 86.4978 38.728ZM86.3298 44.536C86.4098 44.536 86.5057 44.368 86.6177 44.032C86.7297 43.696 86.7857 43.464 86.7857 43.336C86.7857 43.176 86.7617 43.072 86.7137 43.024C86.6817 42.976 86.6018 42.952 86.4738 42.952V40.528L86.3298 40.384C86.4578 40.384 86.5217 40.072 86.5217 39.448C86.3617 39.448 86.2098 39.536 86.0658 39.712C85.9218 39.872 85.8498 40.04 85.8498 40.216C85.8498 40.232 85.8737 40.264 85.9217 40.312C85.9857 40.344 86.0177 40.368 86.0177 40.384L85.8738 40.528V41.56C85.9858 41.592 86.0418 41.696 86.0418 41.872C86.0418 41.984 86.0178 42.16 85.9698 42.4C85.9058 42.56 85.8738 42.736 85.8738 42.928C85.8738 43.104 85.9538 43.272 86.1138 43.432C86.2738 43.592 86.3537 43.728 86.3537 43.84C86.3537 43.888 86.3058 43.976 86.2098 44.104C86.1138 44.216 86.0497 44.312 86.0177 44.392C86.0337 44.392 86.0817 44.416 86.1617 44.464C86.2417 44.512 86.2978 44.536 86.3298 44.536ZM88.2498 45.568C88.2658 45.552 88.2978 45.52 88.3458 45.472C88.4098 45.424 88.4418 45.368 88.4418 45.304C88.4418 45.272 88.3138 45.192 88.0578 45.064C87.8018 44.936 87.6177 44.848 87.5057 44.8C87.4577 44.8 87.3778 44.832 87.2658 44.896C87.1538 44.944 87.0338 44.968 86.9058 44.968C86.9538 44.952 87.0097 44.904 87.0737 44.824C87.1537 44.744 87.2017 44.696 87.2177 44.68C87.2177 44.568 87.1857 44.456 87.1216 44.344C87.0737 44.232 87.0018 44.152 86.9058 44.104C86.8578 44.104 86.7778 44.2 86.6658 44.392C86.5698 44.568 86.5058 44.704 86.4738 44.8C86.4738 45.136 86.6737 45.4 87.0737 45.592C87.4737 45.784 87.8418 45.88 88.1778 45.88C88.2738 45.88 88.3538 45.816 88.4178 45.688L88.2498 45.568Z" fill="black"/>
</g>
</g>
<defs>
<clipPath id="clip0_1_2">
<rect width="188" height="54" fill="white"/>
</clipPath>
</defs>
</svg>
